  0
SECTION
  2
HEADER
  9
$ACADVER
  1
AC1021
  9
$DWGCODEPAGE
  3
ansi_1252
  9
$HANDSEED
  5
20000
  9
$INSUNITS
  70
4
  0
ENDSEC
  0
SECTION
  2
TABLES
  0
TABLE
  2
VPORT
  5
8
  330
0
  100
AcDbSymbolTable
  70
1
  0
ENDTAB
  0
TABLE
  2
LTYPE
  5
5
  330
0
  100
AcDbSymbolTable
  70
3
  0
LTYPE
  5
14
  330
5
  100
AcDbSymbolTableRecord
  100
AcDbLinetypeTableRecord
  2
ByBlock
  70
0
  3

  72
65
  73
0
  40
0
  0
LTYPE
  5
15
  330
5
  100
AcDbSymbolTableRecord
  100
AcDbLinetypeTableRecord
  2
ByLayer
  70
0
  3

  72
65
  73
0
  40
0
  0
LTYPE
  5
16
  330
5
  100
AcDbSymbolTableRecord
  100
AcDbLinetypeTableRecord
  2
Continuous
  70
0
  3
Solid line
  72
65
  73
0
  40
0
  0
ENDTAB
  0
TABLE
  2
LAYER
  5
2
  330
0
  100
AcDbSymbolTable
  70
1
  0
LAYER
  5
10
  330
2
  100
AcDbSymbolTableRecord
  100
AcDbLayerTableRecord
  2
0
  70
0
  62
7
  6
CONTINUOUS
  370
-3
  390
F
  0
LAYER
  5
91
  330
2
  100
AcDbSymbolTableRecord
  100
AcDbLayerTableRecord
  2
Layer_30
  70
0
  62
30
  6
CONTINUOUS
  370
-3
  390
F
  0
LAYER
  5
92
  330
2
  100
AcDbSymbolTableRecord
  100
AcDbLayerTableRecord
  2
Layer_30
  70
0
  62
30
  6
CONTINUOUS
  370
-3
  390
F
  0
LAYER
  5
93
  330
2
  100
AcDbSymbolTableRecord
  100
AcDbLayerTableRecord
  2
Layer_30
  70
0
  62
30
  6
CONTINUOUS
  370
-3
  390
F
  0
LAYER
  5
94
  330
2
  100
AcDbSymbolTableRecord
  100
AcDbLayerTableRecord
  2
Layer_0
  70
0
  62
7
  6
CONTINUOUS
  370
-3
  390
F
  0
LAYER
  5
95
  330
2
  100
AcDbSymbolTableRecord
  100
AcDbLayerTableRecord
  2
Layer_0
  70
0
  62
7
  6
CONTINUOUS
  370
-3
  390
F
  0
LAYER
  5
96
  330
2
  100
AcDbSymbolTableRecord
  100
AcDbLayerTableRecord
  2
Layer_30
  70
0
  62
30
  6
CONTINUOUS
  370
-3
  390
F
  0
LAYER
  5
97
  330
2
  100
AcDbSymbolTableRecord
  100
AcDbLayerTableRecord
  2
Layer_0
  70
0
  62
7
  6
CONTINUOUS
  370
-3
  390
F
  0
LAYER
  5
98
  330
2
  100
AcDbSymbolTableRecord
  100
AcDbLayerTableRecord
  2
Layer_0
  70
0
  62
7
  6
CONTINUOUS
  370
-3
  390
F
  0
LAYER
  5
99
  330
2
  100
AcDbSymbolTableRecord
  100
AcDbLayerTableRecord
  2
Layer_0
  70
0
  62
7
  6
CONTINUOUS
  370
-3
  390
F
  0
LAYER
  5
9a
  330
2
  100
AcDbSymbolTableRecord
  100
AcDbLayerTableRecord
  2
Layer_0
  70
0
  62
7
  6
CONTINUOUS
  370
-3
  390
F
  0
ENDTAB
  0
TABLE
  2
STYLE
  5
3
  330
0
  100
AcDbSymbolTable
  70
3
  0
ENDTAB
  0
TABLE
  2
VIEW
  5
6
  330
0
  100
AcDbSymbolTable
  70
0
  0
ENDTAB
  0
TABLE
  2
UCS
  5
7
  330
0
  100
AcDbSymbolTable
  70
0
  0
ENDTAB
  0
TABLE
  2
APPID
  5
9
  330
0
  100
AcDbSymbolTable
  70
1
  0
APPID
  5
12
  330
9
  100
AcDbSymbolTableRecord
  100
AcDbRegAppTableRecord
  2
ACAD
  70
0
  0
ENDTAB
  0
TABLE
  2
DIMSTYLE
  5
A
  330
0
  100
AcDbSymbolTable
  70
1
  100
AcDbDimStyleTable
  71
1
  0
ENDTAB
  0
TABLE
  2
BLOCK_RECORD
  5
1
  330
0
  100
AcDbSymbolTable
  70
2
  0
BLOCK_RECORD
  5
1F
  330
1
  100
AcDbSymbolTableRecord
  100
AcDbBlockTableRecord
  2
*Model_Space
  70
0
  280
1
  281
0
  0
BLOCK_RECORD
  5
1E
  330
1
  100
AcDbSymbolTableRecord
  100
AcDbBlockTableRecord
  2
*Paper_Space
  70
0
  280
1
  281
0
  0
ENDTAB
  0
ENDSEC
  0
SECTION
  2
BLOCKS
  0
BLOCK
  5
20
  330
1F
  100
AcDbEntity
  8
0
  100
AcDbBlockBegin
  2
*Model_Space
  70
0
  10
0
  20
0
  30
0
  3
*Model_Space
  1

  0
ENDBLK
  5
21
  330
1F
  100
AcDbEntity
  8
0
  100
AcDbBlockEnd
  0
BLOCK
  5
1C
  330
1B
  100
AcDbEntity
  8
0
  100
AcDbBlockBegin
  2
*Paper_Space
  70
0
  10
0
  20
0
  30
0
  3
*Paper_Space
  1

  0
ENDBLK
  5
1D
  330
1F
  100
AcDbEntity
  8
0
  100
AcDbBlockEnd
  0
ENDSEC
  0
SECTION
  2
ENTITIES
  0
CIRCLE
  5
9b
  100
AcDbEntity
  8
Layer_30
  6
Continuous
  62
30
  370
-1
  100
AcDbCircle
  10
917
  20
585
  30
0
  40
1.5999894
  0
LWPOLYLINE
  5
9c
  100
AcDbEntity
  8

  6
Continuous
  62
30
  370
-1
  100
AcDbPolyline
  90
5
  70
1
  10
939.99994
  20
592.00006
  30
0
  10
939.99994
  20
482.00006
  30
0
  10
893.99994
  20
482.00003
  30
0
  10
893.99994
  20
592.00006
  30
0
  10
939.99994
  20
592.00006
  30
0
  0
CIRCLE
  5
9d
  100
AcDbEntity
  8
Layer_30
  6
Continuous
  62
30
  370
-1
  100
AcDbCircle
  10
917.00006
  20
489.00003
  30
0
  40
1.5999999
  0
CIRCLE
  5
9e
  100
AcDbEntity
  8
Layer_0
  6
Continuous
  62
7
  370
-1
  100
AcDbCircle
  10
949.39185
  20
509.00003
  30
0
  40
1.55
  0
CIRCLE
  5
9f
  100
AcDbEntity
  8
Layer_0
  6
Continuous
  62
7
  370
-1
  100
AcDbCircle
  10
949.39185
  20
565.00006
  30
0
  40
1.55
  0
LWPOLYLINE
  5
a0
  100
AcDbEntity
  8

  6
Continuous
  62
30
  370
-1
  100
AcDbPolyline
  90
5
  70
1
  10
994.5
  20
479.50003
  30
0
  10
839.5
  20
479.5
  30
0
  10
839.5
  20
594.5
  30
0
  10
994.49994
  20
594.50006
  30
0
  10
994.5
  20
479.50003
  30
0
  0
CIRCLE
  5
a1
 100
AcDbEntity
  8
Layer_0
  6
Continuous
 62
7
370
-1
 100
AcDbCircle
 10
967.64932
 20
557.33844
 30
0
 40
5.2
  0
CIRCLE
  5
a2
 100
AcDbEntity
  8
Layer_0
  6
Continuous
 62
7
370
-1
 100
AcDbCircle
 10
967.64935
 20
517.20154
 30
0
 40
5.2
  0
LWPOLYLINE
  5
a3
  100
AcDbEntity
  8

  6
Continuous
  62
7
  370
-1
  100
AcDbPolyline
  90
5
  70
1
  10
957.22089
  20
527.50006
  30
0
  10
957.22089
  20
546.50006
  30
0
  10
976.22089
  20
546.50006
  30
0
  10
976.22089
  20
527.50006
  30
0
  10
957.22089
  20
527.50006
  30
0
  0
LWPOLYLINE
  5
a4
  100
AcDbEntity
  8

  6
Continuous
  62
7
  370
-1
  100
AcDbPolyline
  90
5
  70
1
  10
997.625
  20
476.37503
  30
0
  10
836.375
  20
476.375
  30
0
  10
836.375
  20
597.625
  30
0
  10
997.625
  20
597.625
  30
0
  10
997.625
  20
476.37503
  30
0
  0
ENDSEC
  0
SECTION
  2
OBJECTS
  0
DICTIONARY
  5
C
  330
0
  100
AcDbDictionary
  281
1
  3
ACAD_GROUP
  350
D
  0
DICTIONARY
  5
D
  330
C
  100
AcDbDictionary
  281
1
  0
ENDSEC
  0
EOF
