  0
SECTION
  2
HEADER
  9
$ACADVER
  1
AC1021
  9
$DWGCODEPAGE
  3
ansi_1252
  9
$HANDSEED
  5
20000
  9
$INSUNITS
  70
4
  0
ENDSEC
  0
SECTION
  2
TABLES
  0
TABLE
  2
VPORT
  5
8
  330
0
  100
AcDbSymbolTable
  70
1
  0
ENDTAB
  0
TABLE
  2
LTYPE
  5
5
  330
0
  100
AcDbSymbolTable
  70
3
  0
LTYPE
  5
14
  330
5
  100
AcDbSymbolTableRecord
  100
AcDbLinetypeTableRecord
  2
ByBlock
  70
0
  3

  72
65
  73
0
  40
0
  0
LTYPE
  5
15
  330
5
  100
AcDbSymbolTableRecord
  100
AcDbLinetypeTableRecord
  2
ByLayer
  70
0
  3

  72
65
  73
0
  40
0
  0
LTYPE
  5
16
  330
5
  100
AcDbSymbolTableRecord
  100
AcDbLinetypeTableRecord
  2
Continuous
  70
0
  3
Solid line
  72
65
  73
0
  40
0
  0
ENDTAB
  0
TABLE
  2
LAYER
  5
2
  330
0
  100
AcDbSymbolTable
  70
1
  0
LAYER
  5
10
  330
2
  100
AcDbSymbolTableRecord
  100
AcDbLayerTableRecord
  2
0
  70
0
  62
7
  6
CONTINUOUS
  370
-3
  390
F
  0
LAYER
  5
91
  330
2
  100
AcDbSymbolTableRecord
  100
AcDbLayerTableRecord
  2
Layer_0
  70
0
  62
7
  6
CONTINUOUS
  370
-3
  390
F
  0
LAYER
  5
92
  330
2
  100
AcDbSymbolTableRecord
  100
AcDbLayerTableRecord
  2
Layer_0
  70
0
  62
7
  6
CONTINUOUS
  370
-3
  390
F
  0
LAYER
  5
93
  330
2
  100
AcDbSymbolTableRecord
  100
AcDbLayerTableRecord
  2
Layer_0
  70
0
  62
7
  6
CONTINUOUS
  370
-3
  390
F
  0
LAYER
  5
94
  330
2
  100
AcDbSymbolTableRecord
  100
AcDbLayerTableRecord
  2
Layer_0
  70
0
  62
7
  6
CONTINUOUS
  370
-3
  390
F
  0
LAYER
  5
95
  330
2
  100
AcDbSymbolTableRecord
  100
AcDbLayerTableRecord
  2
Layer_0
  70
0
  62
7
  6
CONTINUOUS
  370
-3
  390
F
  0
LAYER
  5
96
  330
2
  100
AcDbSymbolTableRecord
  100
AcDbLayerTableRecord
  2
Layer_0
  70
0
  62
7
  6
CONTINUOUS
  370
-3
  390
F
  0
LAYER
  5
97
  330
2
  100
AcDbSymbolTableRecord
  100
AcDbLayerTableRecord
  2
Layer_0
  70
0
  62
7
  6
CONTINUOUS
  370
-3
  390
F
  0
LAYER
  5
98
  330
2
  100
AcDbSymbolTableRecord
  100
AcDbLayerTableRecord
  2
Layer_0
  70
0
  62
7
  6
CONTINUOUS
  370
-3
  390
F
  0
LAYER
  5
99
  330
2
  100
AcDbSymbolTableRecord
  100
AcDbLayerTableRecord
  2
Layer_0
  70
0
  62
7
  6
CONTINUOUS
  370
-3
  390
F
  0
LAYER
  5
9a
  330
2
  100
AcDbSymbolTableRecord
  100
AcDbLayerTableRecord
  2
Layer_0
  70
0
  62
7
  6
CONTINUOUS
  370
-3
  390
F
  0
LAYER
  5
9b
  330
2
  100
AcDbSymbolTableRecord
  100
AcDbLayerTableRecord
  2
Layer_0
  70
0
  62
7
  6
CONTINUOUS
  370
-3
  390
F
  0
LAYER
  5
9c
  330
2
  100
AcDbSymbolTableRecord
  100
AcDbLayerTableRecord
  2
Layer_0
  70
0
  62
7
  6
CONTINUOUS
  370
-3
  390
F
  0
LAYER
  5
9d
  330
2
  100
AcDbSymbolTableRecord
  100
AcDbLayerTableRecord
  2
Layer_0
  70
0
  62
7
  6
CONTINUOUS
  370
-3
  390
F
  0
LAYER
  5
9e
  330
2
  100
AcDbSymbolTableRecord
  100
AcDbLayerTableRecord
  2
Layer_0
  70
0
  62
7
  6
CONTINUOUS
  370
-3
  390
F
  0
LAYER
  5
9f
  330
2
  100
AcDbSymbolTableRecord
  100
AcDbLayerTableRecord
  2
Layer_0
  70
0
  62
7
  6
CONTINUOUS
  370
-3
  390
F
  0
LAYER
  5
a0
  330
2
  100
AcDbSymbolTableRecord
  100
AcDbLayerTableRecord
  2
Layer_0
  70
0
  62
7
  6
CONTINUOUS
  370
-3
  390
F
  0
LAYER
  5
a1
  330
2
  100
AcDbSymbolTableRecord
  100
AcDbLayerTableRecord
  2
Layer_0
  70
0
  62
7
  6
CONTINUOUS
  370
-3
  390
F
  0
LAYER
  5
a2
  330
2
  100
AcDbSymbolTableRecord
  100
AcDbLayerTableRecord
  2
Layer_0
  70
0
  62
7
  6
CONTINUOUS
  370
-3
  390
F
  0
LAYER
  5
a3
  330
2
  100
AcDbSymbolTableRecord
  100
AcDbLayerTableRecord
  2
Layer_0
  70
0
  62
7
  6
CONTINUOUS
  370
-3
  390
F
  0
LAYER
  5
a4
  330
2
  100
AcDbSymbolTableRecord
  100
AcDbLayerTableRecord
  2
Layer_0
  70
0
  62
7
  6
CONTINUOUS
  370
-3
  390
F
  0
LAYER
  5
a5
  330
2
  100
AcDbSymbolTableRecord
  100
AcDbLayerTableRecord
  2
Layer_0
  70
0
  62
7
  6
CONTINUOUS
  370
-3
  390
F
  0
ENDTAB
  0
TABLE
  2
STYLE
  5
3
  330
0
  100
AcDbSymbolTable
  70
3
  0
ENDTAB
  0
TABLE
  2
VIEW
  5
6
  330
0
  100
AcDbSymbolTable
  70
0
  0
ENDTAB
  0
TABLE
  2
UCS
  5
7
  330
0
  100
AcDbSymbolTable
  70
0
  0
ENDTAB
  0
TABLE
  2
APPID
  5
9
  330
0
  100
AcDbSymbolTable
  70
1
  0
APPID
  5
12
  330
9
  100
AcDbSymbolTableRecord
  100
AcDbRegAppTableRecord
  2
ACAD
  70
0
  0
ENDTAB
  0
TABLE
  2
DIMSTYLE
  5
A
  330
0
  100
AcDbSymbolTable
  70
1
  100
AcDbDimStyleTable
  71
1
  0
ENDTAB
  0
TABLE
  2
BLOCK_RECORD
  5
1
  330
0
  100
AcDbSymbolTable
  70
2
  0
BLOCK_RECORD
  5
1F
  330
1
  100
AcDbSymbolTableRecord
  100
AcDbBlockTableRecord
  2
*Model_Space
  70
0
  280
1
  281
0
  0
BLOCK_RECORD
  5
1E
  330
1
  100
AcDbSymbolTableRecord
  100
AcDbBlockTableRecord
  2
*Paper_Space
  70
0
  280
1
  281
0
  0
ENDTAB
  0
ENDSEC
  0
SECTION
  2
BLOCKS
  0
BLOCK
  5
20
  330
1F
  100
AcDbEntity
  8
0
  100
AcDbBlockBegin
  2
*Model_Space
  70
0
  10
0
  20
0
  30
0
  3
*Model_Space
  1

  0
ENDBLK
  5
21
  330
1F
  100
AcDbEntity
  8
0
  100
AcDbBlockEnd
  0
BLOCK
  5
1C
  330
1B
  100
AcDbEntity
  8
0
  100
AcDbBlockBegin
  2
*Paper_Space
  70
0
  10
0
  20
0
  30
0
  3
*Paper_Space
  1

  0
ENDBLK
  5
1D
  330
1F
  100
AcDbEntity
  8
0
  100
AcDbBlockEnd
  0
ENDSEC
  0
SECTION
  2
ENTITIES
  0
LWPOLYLINE
  5
a6
  100
AcDbEntity
  8

  6
Continuous
  62
7
  370
-1
  100
AcDbPolyline
  90
5
  70
1
  10
845.04816
  20
514
  30
0
  10
885.04816
  20
514
  30
0
  10
885.04816
  20
545
  30
0
  10
845.04816
  20
545
  30
0
  10
845.04816
  20
514
  30
0
  0
LWPOLYLINE
  5
a7
  100
AcDbEntity
  8

  6
Continuous
  62
7
  370
-1
  100
AcDbPolyline
  90
5
  70
1
  10
822.13306
  20
555
  30
0
  10
904.13306
  20
555
  30
0
  10
904.13306
  20
505
  30
0
  10
822.13306
  20
505
  30
0
  10
822.13306
  20
555
  30
0
  0
CIRCLE
  5
a8
  100
AcDbEntity
  8
Layer_0
  6
Continuous
  62
7
  370
-1
  100
AcDbCircle
  10
870.93628
  20
580.06586
  30
0
  40
6.1000009
  0
LWPOLYLINE
  5
a9
  100
AcDbEntity
  8

  6
Continuous
  62
7
  370
-1
  100
AcDbPolyline
  90
5
  70
1
  10
920.52008
  20
590.30182
  30
0
  10
987
  20
590.30182
  30
0
  10
987
  20
549.69818
  30
0
  10
920.52008
  20
549.69818
  30
0
  10
920.52008
  20
590.30182
  30
0
  0
CIRCLE
  5
aa
  100
AcDbEntity
  8
Layer_0
  6
Continuous
  62
7
  370
-1
  100
AcDbCircle
  10
830.54816
  20
548.15002
  30
0
  40
1.5
  0
CIRCLE
  5
ab
  100
AcDbEntity
  8
Layer_0
  6
Continuous
  62
7
  370
-1
  100
AcDbCircle
  10
893.54816
  20
509.85001
  30
0
  40
1.5
  0
CIRCLE
  5
ac
  100
AcDbEntity
  8
Layer_0
  6
Continuous
  62
7
  370
-1
  100
AcDbCircle
  10
893.54816
  20
548.15002
  30
0
  40
1.5
  0
CIRCLE
  5
ad
  100
AcDbEntity
  8
Layer_0
  6
Continuous
  62
7
  370
-1
  100
AcDbCircle
  10
830.54816
  20
548.15002
  30
0
  40
1.5
  0
CIRCLE
  5
ae
  100
AcDbEntity
  8
Layer_0
  6
Continuous
  62
7
  370
-1
  100
AcDbCircle
  10
830.54816
  20
509.85001
  30
0
  40
1.5
  0
LWPOLYLINE
  5
af
  100
AcDbEntity
  8

  6
Continuous
  62
7
  370
-1
  100
AcDbPolyline
  90
5
  70
1
  10
845.04816
  20
514
  30
0
  10
885.04816
  20
514
  30
0
  10
885.04816
  20
545
  30
0
  10
845.04816
  20
545
  30
0
  10
845.04816
  20
514
  30
0
  0
LWPOLYLINE
  5
b0
  100
AcDbEntity
  8

  6
Continuous
  62
7
  370
-1
  100
AcDbPolyline
  90
5
  70
1
  10
822.13306
  20
555
  30
0
  10
904.13306
  20
555
  30
0
  10
904.13306
  20
505
  30
0
  10
822.13306
  20
505
  30
0
  10
822.13306
  20
555
  30
0
  0
LWPOLYLINE
  5
b1
  100
AcDbEntity
  8

  6
Continuous
  62
7
  370
-1
  100
AcDbPolyline
  90
5
  70
1
  10
887.34833
  20
582.40167
  30
0
  10
903.34833
  20
582.40167
  30
0
  10
903.34833
  20
569.40167
  30
0
  10
887.34833
  20
569.40167
  30
0
  10
887.34833
  20
582.40167
  30
0
  0
LWPOLYLINE
  5
b2
  100
AcDbEntity
  8

  6
Continuous
  62
7
  370
-1
  100
AcDbPolyline
  90
5
  70
1
  10
849.63361
  20
586.99109
  30
0
  10
849.60657
  20
572.99109
  30
0
  10
819.60663
  20
573.04901
  30
0
  10
819.63367
  20
587.04901
  30
0
  10
849.63361
  20
586.99109
  30
0
  0
LWPOLYLINE
  5
b3
  100
AcDbEntity
  8

  6
Continuous
  62
7
  370
-1
  100
AcDbPolyline
  90
5
  70
1
  10
815.88129
  20
598.81104
  30
0
  10
852.88129
  20
598.81104
  30
0
  10
852.88129
  20
558.11218
  30
0
  10
815.88129
  20
558.11218
  30
0
  10
815.88129
  20
598.81104
  30
0
  0
CIRCLE
  5
b4
  100
AcDbEntity
  8
Layer_0
  6
Continuous
  62
7
  370
-1
  100
AcDbCircle
  10
893.54816
  20
509.85001
  30
0
  40
1.5
  0
CIRCLE
  5
b5
  100
AcDbEntity
  8
Layer_0
  6
Continuous
  62
7
  370
-1
  100
AcDbCircle
  10
893.54816
  20
548.15002
  30
0
  40
1.5
  0
CIRCLE
  5
b6
  100
AcDbEntity
  8
Layer_0
  6
Continuous
  62
7
  370
-1
  100
AcDbCircle
  10
830.54816
  20
548.15002
  30
0
  40
1.5
  0
CIRCLE
  5
b7
  100
AcDbEntity
  8
Layer_0
  6
Continuous
  62
7
  370
-1
  100
AcDbCircle
  10
830.54816
  20
509.85001
  30
0
  40
1.5
  0
LWPOLYLINE
  5
b8
  100
AcDbEntity
  8

  6
Continuous
  62
7
  370
-1
  100
AcDbPolyline
  90
5
  70
1
  10
845.04816
  20
514
  30
0
  10
885.04816
  20
514
  30
0
  10
885.04816
  20
545
  30
0
  10
845.04816
  20
545
  30
0
  10
845.04816
  20
514
  30
0
  0
CIRCLE
  5
b9
  100
AcDbEntity
  8
Layer_0
  6
Continuous
  62
7
  370
-1
  100
AcDbCircle
  10
830.54816
  20
509.85001
  30
0
  40
1.5
  0
CIRCLE
  5
ba
  100
AcDbEntity
  8
Layer_0
  6
Continuous
  62
7
  370
-1
  100
AcDbCircle
  10
925.66162
  20
584.15729
  30
0
  40
1.55
  0
CIRCLE
  5
bb
  100
AcDbEntity
  8
Layer_0
  6
Continuous
  62
7
  370
-1
  100
AcDbCircle
  10
981.66162
  20
584.15729
  30
0
  40
1.55
  0
CIRCLE
  5
bc
  100
AcDbEntity
  8
Layer_0
  6
Continuous
  62
7
  370
-1
  100
AcDbCircle
  10
832.64905
  20
595.02393
  30
0
  40
1.5
  0
CIRCLE
  5
bd
  100
AcDbEntity
  8
Layer_0
  6
Continuous
  62
7
  370
-1
  100
AcDbCircle
  10
832.68231
  20
564.0238
  30
0
  40
1.5
  0
LWPOLYLINE
  5
be
  100
AcDbEntity
  8

  6
Continuous
  62
7
  370
-1
  100
AcDbPolyline
  90
5
  70
1
  10
849.63361
  20
586.99109
  30
0
  10
849.60657
  20
572.99109
  30
0
  10
819.60663
  20
573.04901
  30
0
  10
819.63367
  20
587.04901
  30
0
  10
849.63361
  20
586.99109
  30
0
  0
CIRCLE
  5
bf
  100
AcDbEntity
  8
Layer_0
  6
Continuous
  62
7
  370
-1
  100
AcDbCircle
  10
893.54816
  20
548.15002
  30
0
  40
1.5
  0
CIRCLE
  5
c0
  100
AcDbEntity
  8
Layer_0
  6
Continuous
  62
7
  370
-1
  100
AcDbCircle
  10
893.54816
  20
509.85001
  30
0
  40
1.5
  0
CIRCLE
  5
c1
  100
AcDbEntity
  8
Layer_0
  6
Continuous
  62
7
  370
-1
  100
AcDbCircle
  10
832.68231
  20
564.0238
  30
0
  40
1.5
  0
CIRCLE
  5
c2
  100
AcDbEntity
  8
Layer_0
  6
Continuous
  62
7
  370
-1
  100
AcDbCircle
  10
832.64905
  20
595.02393
  30
0
  40
1.5
  0
CIRCLE
  5
c3
  100
AcDbEntity
  8
Layer_0
  6
Continuous
  62
7
  370
-1
  100
AcDbCircle
  10
832.68231
  20
564.0238
  30
0
  40
1.5
  0
LWPOLYLINE
  5
c4
  100
AcDbEntity
  8

  6
Continuous
  62
7
  370
-1
  100
AcDbPolyline
  90
5
  70
1
  10
849.63361
  20
586.99109
  30
0
  10
849.60657
  20
572.99109
  30
0
  10
819.60663
  20
573.04901
  30
0
  10
819.63367
  20
587.04901
  30
0
  10
849.63361
  20
586.99109
  30
0
  0
LWPOLYLINE
  5
c5
  100
AcDbEntity
  8

  6
Continuous
  62
7
  370
-1
  100
AcDbPolyline
  90
5
  70
1
  10
815.88129
  20
598.81104
  30
0
  10
852.88129
  20
598.81104
  30
0
  10
852.88129
  20
558.11218
  30
0
  10
815.88129
  20
558.11218
  30
0
  10
815.88129
  20
598.81104
  30
0
  0
CIRCLE
  5
c6
  100
AcDbEntity
  8
Layer_0
  6
Continuous
  62
7
  370
-1
  100
AcDbCircle
  10
832.64905
  20
595.02393
  30
0
  40
1.5
  0
CIRCLE
  5
c7
  100
AcDbEntity
  8
Layer_0
  6
Continuous
  62
7
  370
-1
  100
AcDbCircle
  10
895
  20
575.75
  30
0
  40
3.5000007
  0
LWPOLYLINE
  5
c8
  100
AcDbEntity
  8

  6
Continuous
  62
7
  370
-1
  100
AcDbPolyline
  90
5
  70
1
  10
859
  20
588.25598
  30
0
  10
881
  20
588.25598
  30
0
  10
881
  20
570.93274
  30
0
  10
859
  20
570.93274
  30
0
  10
859
  20
588.25598
  30
0
  0
ENDSEC
  0
SECTION
  2
OBJECTS
  0
DICTIONARY
  5
C
  330
0
  100
AcDbDictionary
  281
1
  3
ACAD_GROUP
  350
D
  0
DICTIONARY
  5
D
  330
C
  100
AcDbDictionary
  281
1
  0
ENDSEC
  0
EOF
