0
SECTION
2
HEADER
9
$INSUNITS
70
4
9
$ACADVER
1
AC1014
9
$HANDSEED
5
FFFF
0
ENDSEC
0
SECTION
2
TABLES
0
TABLE
2
VPORT
5
8
100
AcDbSymbolTable
0
ENDTAB
0
TABLE
2
LTYPE
5
5
100
AcDbSymbolTable
0
LTYPE
5
14
100
AcDbSymbolTableRecord
100
AcDbLinetypeTableRecord
2
BYBLOCK
70
0
0
LTYPE
5
15
100
AcDbSymbolTableRecord
100
AcDbLinetypeTableRecord
2
BYLAYER
70
0
0
LTYPE
5
16
100
AcDbSymbolTableRecord
100
AcDbLinetypeTableRecord
2
DASHED
70
0
3
Dashed __ __ __ __ __ __ __ __ __ __ __ __ __ _
72
65
73
2
40
0.75
49
0.5
74
0
49
-0.25
74
0
0
ENDTAB
0
TABLE
2
LAYER
5
2
100
AcDbSymbolTable
70
2
0
LAYER
5
50
100
AcDbSymbolTableRecord
100
AcDbLayerTableRecord
2
0
70
0
62
7
6
CONTINUOUS
0
ENDTAB
0
TABLE
2
STYLE
5
3
100
AcDbSymbolTable
70
1
0
STYLE
5
11
100
AcDbSymbolTableRecord
100
AcDbTextStyleTableRecord
2
STANDARD
70
0
0
ENDTAB
0
TABLE
2
VIEW
5
6
100
AcDbSymbolTable
70
0
0
ENDTAB
0
TABLE
2
UCS
5
7
100
AcDbSymbolTable
70
0
0
ENDTAB
0
TABLE
2
APPID
5
9
100
AcDbSymbolTable
70
2
0
APPID
5
12
100
AcDbSymbolTableRecord
100
AcDbRegAppTableRecord
2
ACAD
70
0
0
ENDTAB
0
TABLE
2
DIMSTYLE
5
A
100
AcDbSymbolTable
70
1
0
ENDTAB
0
TABLE
2
BLOCK_RECORD
5
1
100
AcDbSymbolTable
70
1
0
BLOCK_RECORD
5
1F
100
AcDbSymbolTableRecord
100
AcDbBlockTableRecord
2
*MODEL_SPACE
0
BLOCK_RECORD
5
1B
100
AcDbSymbolTableRecord
100
AcDbBlockTableRecord
2
*PAPER_SPACE
0
ENDTAB
0
ENDSEC
0
SECTION
2
BLOCKS
0
BLOCK
5
20
100
AcDbEntity
100
AcDbBlockBegin
2
*MODEL_SPACE
0
ENDBLK
5
21
100
AcDbEntity
100
AcDbBlockEnd
0
BLOCK
5
1C
100
AcDbEntity
100
AcDbBlockBegin
2
*PAPER_SPACE
0
ENDBLK
5
1D
100
AcDbEntity
100
AcDbBlockEnd
0
ENDSEC
0
SECTION
2
ENTITIES
0
LINE
5
100
100
AcDbEntity
8
0
100
AcDbLine
10
317.77499999999998
20
5.2750000000000004
30
0
11
317.94999999999999
21
5.2750000000000004
31
0
0
LINE
5
101
100
AcDbEntity
8
0
100
AcDbLine
10
317.94999999999999
20
5.2750000000000004
30
0
11
329.31346153846152
21
5.2750000000000004
31
0
0
LINE
5
102
100
AcDbEntity
8
0
100
AcDbLine
10
329.31346153846152
20
5.2750000000000004
30
0
11
329.31346153846152
21
-0.17499999999999999
31
0
0
LINE
5
103
100
AcDbEntity
8
0
100
AcDbLine
10
329.31346153846152
20
-0.17499999999999999
30
0
11
341.20192307692309
21
-0.17499999999999999
31
0
0
LINE
5
104
100
AcDbEntity
8
0
100
AcDbLine
10
341.20192307692309
20
-0.17499999999999999
30
0
11
341.20192307692309
21
5.2750000000000004
31
0
0
LINE
5
105
100
AcDbEntity
8
0
100
AcDbLine
10
341.20192307692309
20
5.2750000000000004
30
0
11
352.39038461538462
21
5.2750000000000004
31
0
0
LINE
5
106
100
AcDbEntity
8
0
100
AcDbLine
10
352.39038461538462
20
5.2750000000000004
30
0
11
352.39038461538462
21
-0.17499999999999999
31
0
0
LINE
5
107
100
AcDbEntity
8
0
100
AcDbLine
10
352.39038461538462
20
-0.17499999999999999
30
0
11
364.27884615384613
21
-0.17499999999999999
31
0
0
LINE
5
108
100
AcDbEntity
8
0
100
AcDbLine
10
364.27884615384613
20
-0.17499999999999999
30
0
11
364.27884615384613
21
5.2750000000000004
31
0
0
LINE
5
109
100
AcDbEntity
8
0
100
AcDbLine
10
364.27884615384613
20
5.2750000000000004
30
0
11
375.46730769230771
21
5.2750000000000004
31
0
0
LINE
5
110
100
AcDbEntity
8
0
100
AcDbLine
10
375.46730769230771
20
5.2750000000000004
30
0
11
375.46730769230771
21
-0.17499999999999999
31
0
0
LINE
5
111
100
AcDbEntity
8
0
100
AcDbLine
10
375.46730769230771
20
-0.17499999999999999
30
0
11
387.35576923076917
21
-0.17499999999999999
31
0
0
LINE
5
112
100
AcDbEntity
8
0
100
AcDbLine
10
387.35576923076917
20
-0.17499999999999999
30
0
11
387.35576923076917
21
5.2750000000000004
31
0
0
LINE
5
113
100
AcDbEntity
8
0
100
AcDbLine
10
387.35576923076917
20
5.2750000000000004
30
0
11
398.54423076923081
21
5.2750000000000004
31
0
0
LINE
5
114
100
AcDbEntity
8
0
100
AcDbLine
10
398.54423076923081
20
5.2750000000000004
30
0
11
398.54423076923081
21
-0.17499999999999999
31
0
0
LINE
5
115
100
AcDbEntity
8
0
100
AcDbLine
10
398.54423076923081
20
-0.17499999999999999
30
0
11
410.43269230769232
21
-0.17499999999999999
31
0
0
LINE
5
116
100
AcDbEntity
8
0
100
AcDbLine
10
410.43269230769232
20
-0.17499999999999999
30
0
11
410.43269230769232
21
5.2750000000000004
31
0
0
LINE
5
117
100
AcDbEntity
8
0
100
AcDbLine
10
410.43269230769232
20
5.2750000000000004
30
0
11
421.62115384615385
21
5.2750000000000004
31
0
0
LINE
5
118
100
AcDbEntity
8
0
100
AcDbLine
10
421.62115384615385
20
5.2750000000000004
30
0
11
421.62115384615385
21
-0.17499999999999999
31
0
0
LINE
5
119
100
AcDbEntity
8
0
100
AcDbLine
10
421.62115384615385
20
-0.17499999999999999
30
0
11
433.50961538461536
21
-0.17499999999999999
31
0
0
LINE
5
120
100
AcDbEntity
8
0
100
AcDbLine
10
433.50961538461536
20
-0.17499999999999999
30
0
11
433.50961538461536
21
5.2750000000000004
31
0
0
LINE
5
121
100
AcDbEntity
8
0
100
AcDbLine
10
433.50961538461536
20
5.2750000000000004
30
0
11
444.69807692307688
21
5.2750000000000004
31
0
0
LINE
5
122
100
AcDbEntity
8
0
100
AcDbLine
10
444.69807692307688
20
5.2750000000000004
30
0
11
444.69807692307688
21
-0.17499999999999999
31
0
0
LINE
5
123
100
AcDbEntity
8
0
100
AcDbLine
10
444.69807692307688
20
-0.17499999999999999
30
0
11
456.58653846153845
21
-0.17499999999999999
31
0
0
LINE
5
124
100
AcDbEntity
8
0
100
AcDbLine
10
456.58653846153845
20
-0.17499999999999999
30
0
11
456.58653846153845
21
5.2750000000000004
31
0
0
LINE
5
125
100
AcDbEntity
8
0
100
AcDbLine
10
456.58653846153845
20
5.2750000000000004
30
0
11
467.95000000000005
21
5.2750000000000004
31
0
0
LINE
5
126
100
AcDbEntity
8
0
100
AcDbLine
10
467.95000000000005
20
5.2750000000000004
30
0
11
468.125
21
5.2750000000000004
31
0
0
LINE
5
127
100
AcDbEntity
8
0
100
AcDbLine
10
468.125
20
5.2750000000000004
30
0
11
468.125
21
5.4500000000000002
31
0
0
LINE
5
128
100
AcDbEntity
8
0
100
AcDbLine
10
468.125
20
5.4500000000000002
30
0
11
468.125
21
17.49722222222222
31
0
0
LINE
5
129
100
AcDbEntity
8
0
100
AcDbLine
10
468.125
20
17.49722222222222
30
0
11
473.57500000000005
21
17.49722222222222
31
0
0
LINE
5
130
100
AcDbEntity
8
0
100
AcDbLine
10
473.57500000000005
20
17.49722222222222
30
0
11
473.57500000000005
21
30.069444444444443
31
0
0
LINE
5
131
100
AcDbEntity
8
0
100
AcDbLine
10
473.57500000000005
20
30.069444444444443
30
0
11
468.125
21
30.069444444444443
31
0
0
LINE
5
132
100
AcDbEntity
8
0
100
AcDbLine
10
468.125
20
30.069444444444443
30
0
11
468.125
21
41.94166666666667
31
0
0
LINE
5
133
100
AcDbEntity
8
0
100
AcDbLine
10
468.125
20
41.94166666666667
30
0
11
473.57500000000005
21
41.94166666666667
31
0
0
LINE
5
134
100
AcDbEntity
8
0
100
AcDbLine
10
473.57500000000005
20
41.94166666666667
30
0
11
473.57500000000005
21
54.513888888888886
31
0
0
LINE
5
135
100
AcDbEntity
8
0
100
AcDbLine
10
473.57500000000005
20
54.513888888888886
30
0
11
468.125
21
54.513888888888886
31
0
0
LINE
5
136
100
AcDbEntity
8
0
100
AcDbLine
10
468.125
20
54.513888888888886
30
0
11
468.125
21
66.386111111111106
31
0
0
LINE
5
137
100
AcDbEntity
8
0
100
AcDbLine
10
468.125
20
66.386111111111106
30
0
11
473.57500000000005
21
66.386111111111106
31
0
0
LINE
5
138
100
AcDbEntity
8
0
100
AcDbLine
10
473.57500000000005
20
66.386111111111106
30
0
11
473.57500000000005
21
78.958333333333329
31
0
0
LINE
5
139
100
AcDbEntity
8
0
100
AcDbLine
10
473.57500000000005
20
78.958333333333329
30
0
11
468.125
21
78.958333333333329
31
0
0
LINE
5
140
100
AcDbEntity
8
0
100
AcDbLine
10
468.125
20
78.958333333333329
30
0
11
468.125
21
90.830555555555549
31
0
0
LINE
5
141
100
AcDbEntity
8
0
100
AcDbLine
10
468.125
20
90.830555555555549
30
0
11
473.57500000000005
21
90.830555555555549
31
0
0
LINE
5
142
100
AcDbEntity
8
0
100
AcDbLine
10
473.57500000000005
20
90.830555555555549
30
0
11
473.57500000000005
21
103.40277777777777
31
0
0
LINE
5
143
100
AcDbEntity
8
0
100
AcDbLine
10
473.57500000000005
20
103.40277777777777
30
0
11
468.125
21
103.40277777777777
31
0
0
LINE
5
144
100
AcDbEntity
8
0
100
AcDbLine
10
468.125
20
103.40277777777777
30
0
11
468.125
21
115.45
31
0
0
LINE
5
145
100
AcDbEntity
8
0
100
AcDbLine
10
468.125
20
115.45
30
0
11
468.125
21
115.625
31
0
0
LINE
5
146
100
AcDbEntity
8
0
100
AcDbLine
10
468.125
20
115.625
30
0
11
467.95000000000005
21
115.625
31
0
0
LINE
5
147
100
AcDbEntity
8
0
100
AcDbLine
10
467.95000000000005
20
115.625
30
0
11
456.58653846153845
21
115.625
31
0
0
LINE
5
148
100
AcDbEntity
8
0
100
AcDbLine
10
456.58653846153845
20
115.625
30
0
11
456.58653846153845
21
121.075
31
0
0
LINE
5
149
100
AcDbEntity
8
0
100
AcDbLine
10
456.58653846153845
20
121.075
30
0
11
444.69807692307688
21
121.075
31
0
0
LINE
5
150
100
AcDbEntity
8
0
100
AcDbLine
10
444.69807692307688
20
121.075
30
0
11
444.69807692307688
21
115.625
31
0
0
LINE
5
151
100
AcDbEntity
8
0
100
AcDbLine
10
444.69807692307688
20
115.625
30
0
11
433.50961538461536
21
115.625
31
0
0
LINE
5
152
100
AcDbEntity
8
0
100
AcDbLine
10
433.50961538461536
20
115.625
30
0
11
433.50961538461536
21
121.075
31
0
0
LINE
5
153
100
AcDbEntity
8
0
100
AcDbLine
10
433.50961538461536
20
121.075
30
0
11
421.62115384615385
21
121.075
31
0
0
LINE
5
154
100
AcDbEntity
8
0
100
AcDbLine
10
421.62115384615385
20
121.075
30
0
11
421.62115384615385
21
115.625
31
0
0
LINE
5
155
100
AcDbEntity
8
0
100
AcDbLine
10
421.62115384615385
20
115.625
30
0
11
410.43269230769232
21
115.625
31
0
0
LINE
5
156
100
AcDbEntity
8
0
100
AcDbLine
10
410.43269230769232
20
115.625
30
0
11
410.43269230769232
21
121.075
31
0
0
LINE
5
157
100
AcDbEntity
8
0
100
AcDbLine
10
410.43269230769232
20
121.075
30
0
11
398.54423076923081
21
121.075
31
0
0
LINE
5
158
100
AcDbEntity
8
0
100
AcDbLine
10
398.54423076923081
20
121.075
30
0
11
398.54423076923081
21
115.625
31
0
0
LINE
5
159
100
AcDbEntity
8
0
100
AcDbLine
10
398.54423076923081
20
115.625
30
0
11
387.35576923076917
21
115.625
31
0
0
LINE
5
160
100
AcDbEntity
8
0
100
AcDbLine
10
387.35576923076917
20
115.625
30
0
11
387.35576923076917
21
121.075
31
0
0
LINE
5
161
100
AcDbEntity
8
0
100
AcDbLine
10
387.35576923076917
20
121.075
30
0
11
375.46730769230771
21
121.075
31
0
0
LINE
5
162
100
AcDbEntity
8
0
100
AcDbLine
10
375.46730769230771
20
121.075
30
0
11
375.46730769230771
21
115.625
31
0
0
LINE
5
163
100
AcDbEntity
8
0
100
AcDbLine
10
375.46730769230771
20
115.625
30
0
11
364.27884615384613
21
115.625
31
0
0
LINE
5
164
100
AcDbEntity
8
0
100
AcDbLine
10
364.27884615384613
20
115.625
30
0
11
364.27884615384613
21
121.075
31
0
0
LINE
5
165
100
AcDbEntity
8
0
100
AcDbLine
10
364.27884615384613
20
121.075
30
0
11
352.39038461538462
21
121.075
31
0
0
LINE
5
166
100
AcDbEntity
8
0
100
AcDbLine
10
352.39038461538462
20
121.075
30
0
11
352.39038461538462
21
115.625
31
0
0
LINE
5
167
100
AcDbEntity
8
0
100
AcDbLine
10
352.39038461538462
20
115.625
30
0
11
341.20192307692309
21
115.625
31
0
0
LINE
5
168
100
AcDbEntity
8
0
100
AcDbLine
10
341.20192307692309
20
115.625
30
0
11
341.20192307692309
21
121.075
31
0
0
LINE
5
169
100
AcDbEntity
8
0
100
AcDbLine
10
341.20192307692309
20
121.075
30
0
11
329.31346153846152
21
121.075
31
0
0
LINE
5
170
100
AcDbEntity
8
0
100
AcDbLine
10
329.31346153846152
20
121.075
30
0
11
329.31346153846152
21
115.625
31
0
0
LINE
5
171
100
AcDbEntity
8
0
100
AcDbLine
10
329.31346153846152
20
115.625
30
0
11
317.94999999999999
21
115.625
31
0
0
LINE
5
172
100
AcDbEntity
8
0
100
AcDbLine
10
317.94999999999999
20
115.625
30
0
11
317.77499999999998
21
115.625
31
0
0
LINE
5
173
100
AcDbEntity
8
0
100
AcDbLine
10
317.77499999999998
20
115.625
30
0
11
317.77499999999998
21
115.45
31
0
0
LINE
5
174
100
AcDbEntity
8
0
100
AcDbLine
10
317.77499999999998
20
115.45
30
0
11
317.77499999999998
21
103.40277777777777
31
0
0
LINE
5
175
100
AcDbEntity
8
0
100
AcDbLine
10
317.77499999999998
20
103.40277777777777
30
0
11
312.32499999999999
21
103.40277777777777
31
0
0
LINE
5
176
100
AcDbEntity
8
0
100
AcDbLine
10
312.32499999999999
20
103.40277777777777
30
0
11
312.32499999999999
21
90.830555555555549
31
0
0
LINE
5
177
100
AcDbEntity
8
0
100
AcDbLine
10
312.32499999999999
20
90.830555555555549
30
0
11
317.77499999999998
21
90.830555555555549
31
0
0
LINE
5
178
100
AcDbEntity
8
0
100
AcDbLine
10
317.77499999999998
20
90.830555555555549
30
0
11
317.77499999999998
21
78.958333333333329
31
0
0
LINE
5
179
100
AcDbEntity
8
0
100
AcDbLine
10
317.77499999999998
20
78.958333333333329
30
0
11
312.32499999999999
21
78.958333333333329
31
0
0
LINE
5
180
100
AcDbEntity
8
0
100
AcDbLine
10
312.32499999999999
20
78.958333333333329
30
0
11
312.32499999999999
21
66.386111111111106
31
0
0
LINE
5
181
100
AcDbEntity
8
0
100
AcDbLine
10
312.32499999999999
20
66.386111111111106
30
0
11
317.77499999999998
21
66.386111111111106
31
0
0
LINE
5
182
100
AcDbEntity
8
0
100
AcDbLine
10
317.77499999999998
20
66.386111111111106
30
0
11
317.77499999999998
21
54.513888888888886
31
0
0
LINE
5
183
100
AcDbEntity
8
0
100
AcDbLine
10
317.77499999999998
20
54.513888888888886
30
0
11
312.32499999999999
21
54.513888888888886
31
0
0
LINE
5
184
100
AcDbEntity
8
0
100
AcDbLine
10
312.32499999999999
20
54.513888888888886
30
0
11
312.32499999999999
21
41.94166666666667
31
0
0
LINE
5
185
100
AcDbEntity
8
0
100
AcDbLine
10
312.32499999999999
20
41.94166666666667
30
0
11
317.77499999999998
21
41.94166666666667
31
0
0
LINE
5
186
100
AcDbEntity
8
0
100
AcDbLine
10
317.77499999999998
20
41.94166666666667
30
0
11
317.77499999999998
21
30.069444444444443
31
0
0
LINE
5
187
100
AcDbEntity
8
0
100
AcDbLine
10
317.77499999999998
20
30.069444444444443
30
0
11
312.32499999999999
21
30.069444444444443
31
0
0
LINE
5
188
100
AcDbEntity
8
0
100
AcDbLine
10
312.32499999999999
20
30.069444444444443
30
0
11
312.32499999999999
21
17.49722222222222
31
0
0
LINE
5
189
100
AcDbEntity
8
0
100
AcDbLine
10
312.32499999999999
20
17.49722222222222
30
0
11
317.77499999999998
21
17.49722222222222
31
0
0
LINE
5
190
100
AcDbEntity
8
0
100
AcDbLine
10
317.77499999999998
20
17.49722222222222
30
0
11
317.77499999999998
21
5.4500000000000002
31
0
0
LINE
5
191
100
AcDbEntity
8
0
100
AcDbLine
10
317.77499999999998
20
5.4500000000000002
30
0
11
317.77499999999998
21
5.2750000000000004
31
0
0
ENDSEC
0
SECTION
2
OBJECTS
0
DICTIONARY
5
C
100
AcDbDictionary
3
ACAD_GROUP
350
D
3
ACAD_MLINESTYLE
350
17
0
DICTIONARY
5
D
100
AcDbDictionary
0
DICTIONARY
5
1A
330
C
100
AcDbDictionary
0
DICTIONARY
5
17
100
AcDbDictionary
0
ENDSEC
0
EOF
