0
SECTION
2
HEADER
9
$INSUNITS
70
4
9
$ACADVER
1
AC1014
9
$HANDSEED
5
FFFF
0
ENDSEC
0
SECTION
2
TABLES
0
TABLE
2
VPORT
5
8
100
AcDbSymbolTable
0
ENDTAB
0
TABLE
2
LTYPE
5
5
100
AcDbSymbolTable
0
LTYPE
5
14
100
AcDbSymbolTableRecord
100
AcDbLinetypeTableRecord
2
BYBLOCK
70
0
0
LTYPE
5
15
100
AcDbSymbolTableRecord
100
AcDbLinetypeTableRecord
2
BYLAYER
70
0
0
LTYPE
5
16
100
AcDbSymbolTableRecord
100
AcDbLinetypeTableRecord
2
DASHED
70
0
3
Dashed __ __ __ __ __ __ __ __ __ __ __ __ __ _
72
65
73
2
40
0.75
49
0.5
74
0
49
-0.25
74
0
0
ENDTAB
0
TABLE
2
LAYER
5
2
100
AcDbSymbolTable
70
2
0
LAYER
5
50
100
AcDbSymbolTableRecord
100
AcDbLayerTableRecord
2
0
70
0
62
7
6
CONTINUOUS
0
ENDTAB
0
TABLE
2
STYLE
5
3
100
AcDbSymbolTable
70
1
0
STYLE
5
11
100
AcDbSymbolTableRecord
100
AcDbTextStyleTableRecord
2
STANDARD
70
0
0
ENDTAB
0
TABLE
2
VIEW
5
6
100
AcDbSymbolTable
70
0
0
ENDTAB
0
TABLE
2
UCS
5
7
100
AcDbSymbolTable
70
0
0
ENDTAB
0
TABLE
2
APPID
5
9
100
AcDbSymbolTable
70
2
0
APPID
5
12
100
AcDbSymbolTableRecord
100
AcDbRegAppTableRecord
2
ACAD
70
0
0
ENDTAB
0
TABLE
2
DIMSTYLE
5
A
100
AcDbSymbolTable
70
1
0
ENDTAB
0
TABLE
2
BLOCK_RECORD
5
1
100
AcDbSymbolTable
70
1
0
BLOCK_RECORD
5
1F
100
AcDbSymbolTableRecord
100
AcDbBlockTableRecord
2
*MODEL_SPACE
0
BLOCK_RECORD
5
1B
100
AcDbSymbolTableRecord
100
AcDbBlockTableRecord
2
*PAPER_SPACE
0
ENDTAB
0
ENDSEC
0
SECTION
2
BLOCKS
0
BLOCK
5
20
100
AcDbEntity
100
AcDbBlockBegin
2
*MODEL_SPACE
0
ENDBLK
5
21
100
AcDbEntity
100
AcDbBlockEnd
0
BLOCK
5
1C
100
AcDbEntity
100
AcDbBlockBegin
2
*PAPER_SPACE
0
ENDBLK
5
1D
100
AcDbEntity
100
AcDbBlockEnd
0
ENDSEC
0
SECTION
2
ENTITIES
0
LINE
5
100
100
AcDbEntity
8
0
100
AcDbLine
10
10
20
401.25
30
0
11
10
21
413.63214285714287
31
0
0
LINE
5
101
100
AcDbEntity
8
0
100
AcDbLine
10
10
20
413.63214285714287
30
0
11
15.450000000000001
21
413.63214285714287
31
0
0
LINE
5
102
100
AcDbEntity
8
0
100
AcDbLine
10
15.450000000000001
20
413.63214285714287
30
0
11
15.450000000000001
21
425.4892857142857
31
0
0
LINE
5
103
100
AcDbEntity
8
0
100
AcDbLine
10
15.450000000000001
20
425.4892857142857
30
0
11
10
21
425.4892857142857
31
0
0
LINE
5
104
100
AcDbEntity
8
0
100
AcDbLine
10
10
20
425.4892857142857
30
0
11
10
21
438.04642857142858
31
0
0
LINE
5
105
100
AcDbEntity
8
0
100
AcDbLine
10
10
20
438.04642857142858
30
0
11
15.450000000000001
21
438.04642857142858
31
0
0
LINE
5
106
100
AcDbEntity
8
0
100
AcDbLine
10
15.450000000000001
20
438.04642857142858
30
0
11
15.450000000000001
21
449.90357142857147
31
0
0
LINE
5
107
100
AcDbEntity
8
0
100
AcDbLine
10
15.450000000000001
20
449.90357142857147
30
0
11
10
21
449.90357142857147
31
0
0
LINE
5
108
100
AcDbEntity
8
0
100
AcDbLine
10
10
20
449.90357142857147
30
0
11
10
21
462.46071428571429
31
0
0
LINE
5
109
100
AcDbEntity
8
0
100
AcDbLine
10
10
20
462.46071428571429
30
0
11
15.450000000000001
21
462.46071428571429
31
0
0
LINE
5
110
100
AcDbEntity
8
0
100
AcDbLine
10
15.450000000000001
20
462.46071428571429
30
0
11
15.450000000000001
21
474.31785714285718
31
0
0
LINE
5
111
100
AcDbEntity
8
0
100
AcDbLine
10
15.450000000000001
20
474.31785714285718
30
0
11
10
21
474.31785714285718
31
0
0
LINE
5
112
100
AcDbEntity
8
0
100
AcDbLine
10
10
20
474.31785714285718
30
0
11
10
21
487.04999999999995
31
0
0
LINE
5
113
100
AcDbEntity
8
0
100
AcDbLine
10
10
20
487.04999999999995
30
0
11
171.25000000000003
21
487.04999999999995
31
0
0
LINE
5
114
100
AcDbEntity
8
0
100
AcDbLine
10
171.25000000000003
20
487.04999999999995
30
0
11
171.25000000000003
21
474.31785714285718
31
0
0
LINE
5
115
100
AcDbEntity
8
0
100
AcDbLine
10
171.25000000000003
20
474.31785714285718
30
0
11
165.80000000000001
21
474.31785714285718
31
0
0
LINE
5
116
100
AcDbEntity
8
0
100
AcDbLine
10
165.80000000000001
20
474.31785714285718
30
0
11
165.80000000000001
21
462.46071428571429
31
0
0
LINE
5
117
100
AcDbEntity
8
0
100
AcDbLine
10
165.80000000000001
20
462.46071428571429
30
0
11
171.25000000000003
21
462.46071428571429
31
0
0
LINE
5
118
100
AcDbEntity
8
0
100
AcDbLine
10
171.25000000000003
20
462.46071428571429
30
0
11
171.25000000000003
21
449.90357142857147
31
0
0
LINE
5
119
100
AcDbEntity
8
0
100
AcDbLine
10
171.25000000000003
20
449.90357142857147
30
0
11
165.80000000000001
21
449.90357142857147
31
0
0
LINE
5
120
100
AcDbEntity
8
0
100
AcDbLine
10
165.80000000000001
20
449.90357142857147
30
0
11
165.80000000000001
21
438.04642857142858
31
0
0
LINE
5
121
100
AcDbEntity
8
0
100
AcDbLine
10
165.80000000000001
20
438.04642857142858
30
0
11
171.25000000000003
21
438.04642857142858
31
0
0
LINE
5
122
100
AcDbEntity
8
0
100
AcDbLine
10
171.25000000000003
20
438.04642857142858
30
0
11
171.25000000000003
21
425.4892857142857
31
0
0
LINE
5
123
100
AcDbEntity
8
0
100
AcDbLine
10
171.25000000000003
20
425.4892857142857
30
0
11
165.80000000000001
21
425.4892857142857
31
0
0
LINE
5
124
100
AcDbEntity
8
0
100
AcDbLine
10
165.80000000000001
20
425.4892857142857
30
0
11
165.80000000000001
21
413.63214285714287
31
0
0
LINE
5
125
100
AcDbEntity
8
0
100
AcDbLine
10
165.80000000000001
20
413.63214285714287
30
0
11
171.25000000000003
21
413.63214285714287
31
0
0
LINE
5
126
100
AcDbEntity
8
0
100
AcDbLine
10
171.25000000000003
20
413.63214285714287
30
0
11
171.25000000000003
21
401.25
31
0
0
LINE
5
127
100
AcDbEntity
8
0
100
AcDbLine
10
171.25000000000003
20
401.25
30
0
11
165.62500000000003
21
401.25
31
0
0
LINE
5
128
100
AcDbEntity
8
0
100
AcDbLine
10
165.62500000000003
20
401.25
30
0
11
153.91153846153844
21
401.25
31
0
0
LINE
5
129
100
AcDbEntity
8
0
100
AcDbLine
10
153.91153846153844
20
401.25
30
0
11
153.91153846153844
21
406.70000000000005
31
0
0
LINE
5
130
100
AcDbEntity
8
0
100
AcDbLine
10
153.91153846153844
20
406.70000000000005
30
0
11
142.72307692307695
21
406.70000000000005
31
0
0
LINE
5
131
100
AcDbEntity
8
0
100
AcDbLine
10
142.72307692307695
20
406.70000000000005
30
0
11
142.72307692307695
21
401.25
31
0
0
LINE
5
132
100
AcDbEntity
8
0
100
AcDbLine
10
142.72307692307695
20
401.25
30
0
11
130.8346153846154
21
401.25
31
0
0
LINE
5
133
100
AcDbEntity
8
0
100
AcDbLine
10
130.8346153846154
20
401.25
30
0
11
130.8346153846154
21
406.70000000000005
31
0
0
LINE
5
134
100
AcDbEntity
8
0
100
AcDbLine
10
130.8346153846154
20
406.70000000000005
30
0
11
119.64615384615384
21
406.70000000000005
31
0
0
LINE
5
135
100
AcDbEntity
8
0
100
AcDbLine
10
119.64615384615384
20
406.70000000000005
30
0
11
119.64615384615384
21
401.25
31
0
0
LINE
5
136
100
AcDbEntity
8
0
100
AcDbLine
10
119.64615384615384
20
401.25
30
0
11
107.75769230769231
21
401.25
31
0
0
LINE
5
137
100
AcDbEntity
8
0
100
AcDbLine
10
107.75769230769231
20
401.25
30
0
11
107.75769230769231
21
406.70000000000005
31
0
0
LINE
5
138
100
AcDbEntity
8
0
100
AcDbLine
10
107.75769230769231
20
406.70000000000005
30
0
11
96.569230769230771
21
406.70000000000005
31
0
0
LINE
5
139
100
AcDbEntity
8
0
100
AcDbLine
10
96.569230769230771
20
406.70000000000005
30
0
11
96.569230769230771
21
401.25
31
0
0
LINE
5
140
100
AcDbEntity
8
0
100
AcDbLine
10
96.569230769230771
20
401.25
30
0
11
84.680769230769229
21
401.25
31
0
0
LINE
5
141
100
AcDbEntity
8
0
100
AcDbLine
10
84.680769230769229
20
401.25
30
0
11
84.680769230769229
21
406.70000000000005
31
0
0
LINE
5
142
100
AcDbEntity
8
0
100
AcDbLine
10
84.680769230769229
20
406.70000000000005
30
0
11
73.492307692307691
21
406.70000000000005
31
0
0
LINE
5
143
100
AcDbEntity
8
0
100
AcDbLine
10
73.492307692307691
20
406.70000000000005
30
0
11
73.492307692307691
21
401.25
31
0
0
LINE
5
144
100
AcDbEntity
8
0
100
AcDbLine
10
73.492307692307691
20
401.25
30
0
11
61.603846153846163
21
401.25
31
0
0
LINE
5
145
100
AcDbEntity
8
0
100
AcDbLine
10
61.603846153846163
20
401.25
30
0
11
61.603846153846163
21
406.70000000000005
31
0
0
LINE
5
146
100
AcDbEntity
8
0
100
AcDbLine
10
61.603846153846163
20
406.70000000000005
30
0
11
50.41538461538461
21
406.70000000000005
31
0
0
LINE
5
147
100
AcDbEntity
8
0
100
AcDbLine
10
50.41538461538461
20
406.70000000000005
30
0
11
50.41538461538461
21
401.25
31
0
0
LINE
5
148
100
AcDbEntity
8
0
100
AcDbLine
10
50.41538461538461
20
401.25
30
0
11
38.526923076923076
21
401.25
31
0
0
LINE
5
149
100
AcDbEntity
8
0
100
AcDbLine
10
38.526923076923076
20
401.25
30
0
11
38.526923076923076
21
406.70000000000005
31
0
0
LINE
5
150
100
AcDbEntity
8
0
100
AcDbLine
10
38.526923076923076
20
406.70000000000005
30
0
11
27.338461538461544
21
406.70000000000005
31
0
0
LINE
5
151
100
AcDbEntity
8
0
100
AcDbLine
10
27.338461538461544
20
406.70000000000005
30
0
11
27.338461538461544
21
401.25
31
0
0
LINE
5
152
100
AcDbEntity
8
0
100
AcDbLine
10
27.338461538461544
20
401.25
30
0
11
15.625
21
401.25
31
0
0
LINE
5
153
100
AcDbEntity
8
0
100
AcDbLine
10
15.625
20
401.25
30
0
11
10
21
401.25
31
0
0
CIRCLE
5
154
100
AcDbEntity
8
0
100
AcDbCircle
10
77.625
20
466.875
30
0
40
4.3250000000000011
210
0
220
0
230
1
0
LINE
5
155
100
AcDbEntity
8
0
100
AcDbLine
10
176.25
20
401.25
30
0
11
176.25
21
413.63214285714287
31
0
0
LINE
5
156
100
AcDbEntity
8
0
100
AcDbLine
10
176.25
20
413.63214285714287
30
0
11
181.70000000000002
21
413.63214285714287
31
0
0
LINE
5
157
100
AcDbEntity
8
0
100
AcDbLine
10
181.70000000000002
20
413.63214285714287
30
0
11
181.70000000000002
21
425.4892857142857
31
0
0
LINE
5
158
100
AcDbEntity
8
0
100
AcDbLine
10
181.70000000000002
20
425.4892857142857
30
0
11
176.25
21
425.4892857142857
31
0
0
LINE
5
159
100
AcDbEntity
8
0
100
AcDbLine
10
176.25
20
425.4892857142857
30
0
11
176.25
21
438.04642857142858
31
0
0
LINE
5
160
100
AcDbEntity
8
0
100
AcDbLine
10
176.25
20
438.04642857142858
30
0
11
181.70000000000002
21
438.04642857142858
31
0
0
LINE
5
161
100
AcDbEntity
8
0
100
AcDbLine
10
181.70000000000002
20
438.04642857142858
30
0
11
181.70000000000002
21
449.90357142857147
31
0
0
LINE
5
162
100
AcDbEntity
8
0
100
AcDbLine
10
181.70000000000002
20
449.90357142857147
30
0
11
176.25
21
449.90357142857147
31
0
0
LINE
5
163
100
AcDbEntity
8
0
100
AcDbLine
10
176.25
20
449.90357142857147
30
0
11
176.25
21
462.46071428571429
31
0
0
LINE
5
164
100
AcDbEntity
8
0
100
AcDbLine
10
176.25
20
462.46071428571429
30
0
11
181.70000000000002
21
462.46071428571429
31
0
0
LINE
5
165
100
AcDbEntity
8
0
100
AcDbLine
10
181.70000000000002
20
462.46071428571429
30
0
11
181.70000000000002
21
474.31785714285718
31
0
0
LINE
5
166
100
AcDbEntity
8
0
100
AcDbLine
10
181.70000000000002
20
474.31785714285718
30
0
11
176.25
21
474.31785714285718
31
0
0
LINE
5
167
100
AcDbEntity
8
0
100
AcDbLine
10
176.25
20
474.31785714285718
30
0
11
176.25
21
487.04999999999995
31
0
0
LINE
5
168
100
AcDbEntity
8
0
100
AcDbLine
10
176.25
20
487.04999999999995
30
0
11
337.5
21
487.04999999999995
31
0
0
LINE
5
169
100
AcDbEntity
8
0
100
AcDbLine
10
337.5
20
487.04999999999995
30
0
11
337.5
21
474.31785714285718
31
0
0
LINE
5
170
100
AcDbEntity
8
0
100
AcDbLine
10
337.5
20
474.31785714285718
30
0
11
332.04999999999995
21
474.31785714285718
31
0
0
LINE
5
171
100
AcDbEntity
8
0
100
AcDbLine
10
332.04999999999995
20
474.31785714285718
30
0
11
332.04999999999995
21
462.46071428571429
31
0
0
LINE
5
172
100
AcDbEntity
8
0
100
AcDbLine
10
332.04999999999995
20
462.46071428571429
30
0
11
337.5
21
462.46071428571429
31
0
0
LINE
5
173
100
AcDbEntity
8
0
100
AcDbLine
10
337.5
20
462.46071428571429
30
0
11
337.5
21
449.90357142857147
31
0
0
LINE
5
174
100
AcDbEntity
8
0
100
AcDbLine
10
337.5
20
449.90357142857147
30
0
11
332.04999999999995
21
449.90357142857147
31
0
0
LINE
5
175
100
AcDbEntity
8
0
100
AcDbLine
10
332.04999999999995
20
449.90357142857147
30
0
11
332.04999999999995
21
438.04642857142858
31
0
0
LINE
5
176
100
AcDbEntity
8
0
100
AcDbLine
10
332.04999999999995
20
438.04642857142858
30
0
11
337.5
21
438.04642857142858
31
0
0
LINE
5
177
100
AcDbEntity
8
0
100
AcDbLine
10
337.5
20
438.04642857142858
30
0
11
337.5
21
425.4892857142857
31
0
0
LINE
5
178
100
AcDbEntity
8
0
100
AcDbLine
10
337.5
20
425.4892857142857
30
0
11
332.04999999999995
21
425.4892857142857
31
0
0
LINE
5
179
100
AcDbEntity
8
0
100
AcDbLine
10
332.04999999999995
20
425.4892857142857
30
0
11
332.04999999999995
21
413.63214285714287
31
0
0
LINE
5
180
100
AcDbEntity
8
0
100
AcDbLine
10
332.04999999999995
20
413.63214285714287
30
0
11
337.5
21
413.63214285714287
31
0
0
LINE
5
181
100
AcDbEntity
8
0
100
AcDbLine
10
337.5
20
413.63214285714287
30
0
11
337.5
21
401.25
31
0
0
LINE
5
182
100
AcDbEntity
8
0
100
AcDbLine
10
337.5
20
401.25
30
0
11
331.875
21
401.25
31
0
0
LINE
5
183
100
AcDbEntity
8
0
100
AcDbLine
10
331.875
20
401.25
30
0
11
320.16153846153838
21
401.25
31
0
0
LINE
5
184
100
AcDbEntity
8
0
100
AcDbLine
10
320.16153846153838
20
401.25
30
0
11
320.16153846153838
21
406.70000000000005
31
0
0
LINE
5
185
100
AcDbEntity
8
0
100
AcDbLine
10
320.16153846153838
20
406.70000000000005
30
0
11
308.97307692307697
21
406.70000000000005
31
0
0
LINE
5
186
100
AcDbEntity
8
0
100
AcDbLine
10
308.97307692307697
20
406.70000000000005
30
0
11
308.97307692307697
21
401.25
31
0
0
LINE
5
187
100
AcDbEntity
8
0
100
AcDbLine
10
308.97307692307697
20
401.25
30
0
11
297.0846153846154
21
401.25
31
0
0
LINE
5
188
100
AcDbEntity
8
0
100
AcDbLine
10
297.0846153846154
20
401.25
30
0
11
297.0846153846154
21
406.70000000000005
31
0
0
LINE
5
189
100
AcDbEntity
8
0
100
AcDbLine
10
297.0846153846154
20
406.70000000000005
30
0
11
285.89615384615388
21
406.70000000000005
31
0
0
LINE
5
190
100
AcDbEntity
8
0
100
AcDbLine
10
285.89615384615388
20
406.70000000000005
30
0
11
285.89615384615388
21
401.25
31
0
0
LINE
5
191
100
AcDbEntity
8
0
100
AcDbLine
10
285.89615384615388
20
401.25
30
0
11
274.00769230769231
21
401.25
31
0
0
LINE
5
192
100
AcDbEntity
8
0
100
AcDbLine
10
274.00769230769231
20
401.25
30
0
11
274.00769230769231
21
406.70000000000005
31
0
0
LINE
5
193
100
AcDbEntity
8
0
100
AcDbLine
10
274.00769230769231
20
406.70000000000005
30
0
11
262.81923076923078
21
406.70000000000005
31
0
0
LINE
5
194
100
AcDbEntity
8
0
100
AcDbLine
10
262.81923076923078
20
406.70000000000005
30
0
11
262.81923076923078
21
401.25
31
0
0
LINE
5
195
100
AcDbEntity
8
0
100
AcDbLine
10
262.81923076923078
20
401.25
30
0
11
250.93076923076924
21
401.25
31
0
0
LINE
5
196
100
AcDbEntity
8
0
100
AcDbLine
10
250.93076923076924
20
401.25
30
0
11
250.93076923076924
21
406.70000000000005
31
0
0
LINE
5
197
100
AcDbEntity
8
0
100
AcDbLine
10
250.93076923076924
20
406.70000000000005
30
0
11
239.74230769230769
21
406.70000000000005
31
0
0
LINE
5
198
100
AcDbEntity
8
0
100
AcDbLine
10
239.74230769230769
20
406.70000000000005
30
0
11
239.74230769230769
21
401.25
31
0
0
LINE
5
199
100
AcDbEntity
8
0
100
AcDbLine
10
239.74230769230769
20
401.25
30
0
11
227.85384615384618
21
401.25
31
0
0
LINE
5
200
100
AcDbEntity
8
0
100
AcDbLine
10
227.85384615384618
20
401.25
30
0
11
227.85384615384618
21
406.70000000000005
31
0
0
LINE
5
201
100
AcDbEntity
8
0
100
AcDbLine
10
227.85384615384618
20
406.70000000000005
30
0
11
216.66538461538462
21
406.70000000000005
31
0
0
LINE
5
202
100
AcDbEntity
8
0
100
AcDbLine
10
216.66538461538462
20
406.70000000000005
30
0
11
216.66538461538462
21
401.25
31
0
0
LINE
5
203
100
AcDbEntity
8
0
100
AcDbLine
10
216.66538461538462
20
401.25
30
0
11
204.77692307692308
21
401.25
31
0
0
LINE
5
204
100
AcDbEntity
8
0
100
AcDbLine
10
204.77692307692308
20
401.25
30
0
11
204.77692307692308
21
406.70000000000005
31
0
0
LINE
5
205
100
AcDbEntity
8
0
100
AcDbLine
10
204.77692307692308
20
406.70000000000005
30
0
11
193.58846153846156
21
406.70000000000005
31
0
0
LINE
5
206
100
AcDbEntity
8
0
100
AcDbLine
10
193.58846153846156
20
406.70000000000005
30
0
11
193.58846153846156
21
401.25
31
0
0
LINE
5
207
100
AcDbEntity
8
0
100
AcDbLine
10
193.58846153846156
20
401.25
30
0
11
181.875
21
401.25
31
0
0
LINE
5
208
100
AcDbEntity
8
0
100
AcDbLine
10
181.875
20
401.25
30
0
11
176.25
21
401.25
31
0
0
CIRCLE
5
209
100
AcDbEntity
8
0
100
AcDbCircle
10
243.875
20
466.875
30
0
40
4.3250000000000099
210
0
220
0
230
1
0
LINE
5
210
100
AcDbEntity
8
0
100
AcDbLine
10
347.95000000000005
20
401.25
30
0
11
347.95000000000005
21
413.28214285714284
31
0
0
LINE
5
211
100
AcDbEntity
8
0
100
AcDbLine
10
347.95000000000005
20
413.28214285714284
30
0
11
342.5
21
413.28214285714284
31
0
0
LINE
5
212
100
AcDbEntity
8
0
100
AcDbLine
10
342.5
20
413.28214285714284
30
0
11
342.5
21
425.83928571428572
31
0
0
LINE
5
213
100
AcDbEntity
8
0
100
AcDbLine
10
342.5
20
425.83928571428572
30
0
11
347.95000000000005
21
425.83928571428572
31
0
0
LINE
5
214
100
AcDbEntity
8
0
100
AcDbLine
10
347.95000000000005
20
425.83928571428572
30
0
11
347.95000000000005
21
437.69642857142861
31
0
0
LINE
5
215
100
AcDbEntity
8
0
100
AcDbLine
10
347.95000000000005
20
437.69642857142861
30
0
11
342.5
21
437.69642857142861
31
0
0
LINE
5
216
100
AcDbEntity
8
0
100
AcDbLine
10
342.5
20
437.69642857142861
30
0
11
342.5
21
450.25357142857149
31
0
0
LINE
5
217
100
AcDbEntity
8
0
100
AcDbLine
10
342.5
20
450.25357142857149
30
0
11
347.95000000000005
21
450.25357142857149
31
0
0
LINE
5
218
100
AcDbEntity
8
0
100
AcDbLine
10
347.95000000000005
20
450.25357142857149
30
0
11
347.95000000000005
21
462.11071428571427
31
0
0
LINE
5
219
100
AcDbEntity
8
0
100
AcDbLine
10
347.95000000000005
20
462.11071428571427
30
0
11
342.5
21
462.11071428571427
31
0
0
LINE
5
220
100
AcDbEntity
8
0
100
AcDbLine
10
342.5
20
462.11071428571427
30
0
11
342.5
21
474.66785714285714
31
0
0
LINE
5
221
100
AcDbEntity
8
0
100
AcDbLine
10
342.5
20
474.66785714285714
30
0
11
347.95000000000005
21
474.66785714285714
31
0
0
LINE
5
222
100
AcDbEntity
8
0
100
AcDbLine
10
347.95000000000005
20
474.66785714285714
30
0
11
347.95000000000005
21
487.04999999999995
31
0
0
LINE
5
223
100
AcDbEntity
8
0
100
AcDbLine
10
347.95000000000005
20
487.04999999999995
30
0
11
458.29999999999995
21
487.04999999999995
31
0
0
LINE
5
224
100
AcDbEntity
8
0
100
AcDbLine
10
458.29999999999995
20
487.04999999999995
30
0
11
458.29999999999995
21
474.66785714285714
31
0
0
LINE
5
225
100
AcDbEntity
8
0
100
AcDbLine
10
458.29999999999995
20
474.66785714285714
30
0
11
463.75
21
474.66785714285714
31
0
0
LINE
5
226
100
AcDbEntity
8
0
100
AcDbLine
10
463.75
20
474.66785714285714
30
0
11
463.75
21
462.11071428571427
31
0
0
LINE
5
227
100
AcDbEntity
8
0
100
AcDbLine
10
463.75
20
462.11071428571427
30
0
11
458.29999999999995
21
462.11071428571427
31
0
0
LINE
5
228
100
AcDbEntity
8
0
100
AcDbLine
10
458.29999999999995
20
462.11071428571427
30
0
11
458.29999999999995
21
450.25357142857149
31
0
0
LINE
5
229
100
AcDbEntity
8
0
100
AcDbLine
10
458.29999999999995
20
450.25357142857149
30
0
11
463.75
21
450.25357142857149
31
0
0
LINE
5
230
100
AcDbEntity
8
0
100
AcDbLine
10
463.75
20
450.25357142857149
30
0
11
463.75
21
437.69642857142861
31
0
0
LINE
5
231
100
AcDbEntity
8
0
100
AcDbLine
10
463.75
20
437.69642857142861
30
0
11
458.29999999999995
21
437.69642857142861
31
0
0
LINE
5
232
100
AcDbEntity
8
0
100
AcDbLine
10
458.29999999999995
20
437.69642857142861
30
0
11
458.29999999999995
21
425.83928571428572
31
0
0
LINE
5
233
100
AcDbEntity
8
0
100
AcDbLine
10
458.29999999999995
20
425.83928571428572
30
0
11
463.75
21
425.83928571428572
31
0
0
LINE
5
234
100
AcDbEntity
8
0
100
AcDbLine
10
463.75
20
425.83928571428572
30
0
11
463.75
21
413.28214285714284
31
0
0
LINE
5
235
100
AcDbEntity
8
0
100
AcDbLine
10
463.75
20
413.28214285714284
30
0
11
458.29999999999995
21
413.28214285714284
31
0
0
LINE
5
236
100
AcDbEntity
8
0
100
AcDbLine
10
458.29999999999995
20
413.28214285714284
30
0
11
458.29999999999995
21
401.25
31
0
0
LINE
5
237
100
AcDbEntity
8
0
100
AcDbLine
10
458.29999999999995
20
401.25
30
0
11
458.125
21
401.25
31
0
0
LINE
5
238
100
AcDbEntity
8
0
100
AcDbLine
10
458.125
20
401.25
30
0
11
445.72777777777776
21
401.25
31
0
0
LINE
5
239
100
AcDbEntity
8
0
100
AcDbLine
10
445.72777777777776
20
401.25
30
0
11
445.72777777777776
21
406.70000000000005
31
0
0
LINE
5
240
100
AcDbEntity
8
0
100
AcDbLine
10
445.72777777777776
20
406.70000000000005
30
0
11
433.85555555555555
21
406.70000000000005
31
0
0
LINE
5
241
100
AcDbEntity
8
0
100
AcDbLine
10
433.85555555555555
20
406.70000000000005
30
0
11
433.85555555555555
21
401.25
31
0
0
LINE
5
242
100
AcDbEntity
8
0
100
AcDbLine
10
433.85555555555555
20
401.25
30
0
11
421.28333333333336
21
401.25
31
0
0
LINE
5
243
100
AcDbEntity
8
0
100
AcDbLine
10
421.28333333333336
20
401.25
30
0
11
421.28333333333336
21
406.70000000000005
31
0
0
LINE
5
244
100
AcDbEntity
8
0
100
AcDbLine
10
421.28333333333336
20
406.70000000000005
30
0
11
409.41111111111115
21
406.70000000000005
31
0
0
LINE
5
245
100
AcDbEntity
8
0
100
AcDbLine
10
409.41111111111115
20
406.70000000000005
30
0
11
409.41111111111115
21
401.25
31
0
0
LINE
5
246
100
AcDbEntity
8
0
100
AcDbLine
10
409.41111111111115
20
401.25
30
0
11
396.83888888888885
21
401.25
31
0
0
LINE
5
247
100
AcDbEntity
8
0
100
AcDbLine
10
396.83888888888885
20
401.25
30
0
11
396.83888888888885
21
406.70000000000005
31
0
0
LINE
5
248
100
AcDbEntity
8
0
100
AcDbLine
10
396.83888888888885
20
406.70000000000005
30
0
11
384.9666666666667
21
406.70000000000005
31
0
0
LINE
5
249
100
AcDbEntity
8
0
100
AcDbLine
10
384.9666666666667
20
406.70000000000005
30
0
11
384.9666666666667
21
401.25
31
0
0
LINE
5
250
100
AcDbEntity
8
0
100
AcDbLine
10
384.9666666666667
20
401.25
30
0
11
372.39444444444445
21
401.25
31
0
0
LINE
5
251
100
AcDbEntity
8
0
100
AcDbLine
10
372.39444444444445
20
401.25
30
0
11
372.39444444444445
21
406.70000000000005
31
0
0
LINE
5
252
100
AcDbEntity
8
0
100
AcDbLine
10
372.39444444444445
20
406.70000000000005
30
0
11
360.52222222222224
21
406.70000000000005
31
0
0
LINE
5
253
100
AcDbEntity
8
0
100
AcDbLine
10
360.52222222222224
20
406.70000000000005
30
0
11
360.52222222222224
21
401.25
31
0
0
LINE
5
254
100
AcDbEntity
8
0
100
AcDbLine
10
360.52222222222224
20
401.25
30
0
11
348.125
21
401.25
31
0
0
LINE
5
255
100
AcDbEntity
8
0
100
AcDbLine
10
348.125
20
401.25
30
0
11
347.95000000000005
21
401.25
31
0
0
LINE
5
256
100
AcDbEntity
8
0
100
AcDbLine
10
474.20000000000005
20
401.25
30
0
11
474.20000000000005
21
413.28214285714284
31
0
0
LINE
5
257
100
AcDbEntity
8
0
100
AcDbLine
10
474.20000000000005
20
413.28214285714284
30
0
11
468.75
21
413.28214285714284
31
0
0
LINE
5
258
100
AcDbEntity
8
0
100
AcDbLine
10
468.75
20
413.28214285714284
30
0
11
468.75
21
425.83928571428572
31
0
0
LINE
5
259
100
AcDbEntity
8
0
100
AcDbLine
10
468.75
20
425.83928571428572
30
0
11
474.20000000000005
21
425.83928571428572
31
0
0
LINE
5
260
100
AcDbEntity
8
0
100
AcDbLine
10
474.20000000000005
20
425.83928571428572
30
0
11
474.20000000000005
21
437.69642857142861
31
0
0
LINE
5
261
100
AcDbEntity
8
0
100
AcDbLine
10
474.20000000000005
20
437.69642857142861
30
0
11
468.75
21
437.69642857142861
31
0
0
LINE
5
262
100
AcDbEntity
8
0
100
AcDbLine
10
468.75
20
437.69642857142861
30
0
11
468.75
21
450.25357142857149
31
0
0
LINE
5
263
100
AcDbEntity
8
0
100
AcDbLine
10
468.75
20
450.25357142857149
30
0
11
474.20000000000005
21
450.25357142857149
31
0
0
LINE
5
264
100
AcDbEntity
8
0
100
AcDbLine
10
474.20000000000005
20
450.25357142857149
30
0
11
474.20000000000005
21
462.11071428571427
31
0
0
LINE
5
265
100
AcDbEntity
8
0
100
AcDbLine
10
474.20000000000005
20
462.11071428571427
30
0
11
468.75
21
462.11071428571427
31
0
0
LINE
5
266
100
AcDbEntity
8
0
100
AcDbLine
10
468.75
20
462.11071428571427
30
0
11
468.75
21
474.66785714285714
31
0
0
LINE
5
267
100
AcDbEntity
8
0
100
AcDbLine
10
468.75
20
474.66785714285714
30
0
11
474.20000000000005
21
474.66785714285714
31
0
0
LINE
5
268
100
AcDbEntity
8
0
100
AcDbLine
10
474.20000000000005
20
474.66785714285714
30
0
11
474.20000000000005
21
487.04999999999995
31
0
0
LINE
5
269
100
AcDbEntity
8
0
100
AcDbLine
10
474.20000000000005
20
487.04999999999995
30
0
11
584.54999999999995
21
487.04999999999995
31
0
0
LINE
5
270
100
AcDbEntity
8
0
100
AcDbLine
10
584.54999999999995
20
487.04999999999995
30
0
11
584.54999999999995
21
474.66785714285714
31
0
0
LINE
5
271
100
AcDbEntity
8
0
100
AcDbLine
10
584.54999999999995
20
474.66785714285714
30
0
11
590
21
474.66785714285714
31
0
0
LINE
5
272
100
AcDbEntity
8
0
100
AcDbLine
10
590
20
474.66785714285714
30
0
11
590
21
462.11071428571427
31
0
0
LINE
5
273
100
AcDbEntity
8
0
100
AcDbLine
10
590
20
462.11071428571427
30
0
11
584.54999999999995
21
462.11071428571427
31
0
0
LINE
5
274
100
AcDbEntity
8
0
100
AcDbLine
10
584.54999999999995
20
462.11071428571427
30
0
11
584.54999999999995
21
450.25357142857149
31
0
0
LINE
5
275
100
AcDbEntity
8
0
100
AcDbLine
10
584.54999999999995
20
450.25357142857149
30
0
11
590
21
450.25357142857149
31
0
0
LINE
5
276
100
AcDbEntity
8
0
100
AcDbLine
10
590
20
450.25357142857149
30
0
11
590
21
437.69642857142861
31
0
0
LINE
5
277
100
AcDbEntity
8
0
100
AcDbLine
10
590
20
437.69642857142861
30
0
11
584.54999999999995
21
437.69642857142861
31
0
0
LINE
5
278
100
AcDbEntity
8
0
100
AcDbLine
10
584.54999999999995
20
437.69642857142861
30
0
11
584.54999999999995
21
425.83928571428572
31
0
0
LINE
5
279
100
AcDbEntity
8
0
100
AcDbLine
10
584.54999999999995
20
425.83928571428572
30
0
11
590
21
425.83928571428572
31
0
0
LINE
5
280
100
AcDbEntity
8
0
100
AcDbLine
10
590
20
425.83928571428572
30
0
11
590
21
413.28214285714284
31
0
0
LINE
5
281
100
AcDbEntity
8
0
100
AcDbLine
10
590
20
413.28214285714284
30
0
11
584.54999999999995
21
413.28214285714284
31
0
0
LINE
5
282
100
AcDbEntity
8
0
100
AcDbLine
10
584.54999999999995
20
413.28214285714284
30
0
11
584.54999999999995
21
401.25
31
0
0
LINE
5
283
100
AcDbEntity
8
0
100
AcDbLine
10
584.54999999999995
20
401.25
30
0
11
584.375
21
401.25
31
0
0
LINE
5
284
100
AcDbEntity
8
0
100
AcDbLine
10
584.375
20
401.25
30
0
11
571.97777777777776
21
401.25
31
0
0
LINE
5
285
100
AcDbEntity
8
0
100
AcDbLine
10
571.97777777777776
20
401.25
30
0
11
571.97777777777776
21
406.70000000000005
31
0
0
LINE
5
286
100
AcDbEntity
8
0
100
AcDbLine
10
571.97777777777776
20
406.70000000000005
30
0
11
560.10555555555561
21
406.70000000000005
31
0
0
LINE
5
287
100
AcDbEntity
8
0
100
AcDbLine
10
560.10555555555561
20
406.70000000000005
30
0
11
560.10555555555561
21
401.25
31
0
0
LINE
5
288
100
AcDbEntity
8
0
100
AcDbLine
10
560.10555555555561
20
401.25
30
0
11
547.5333333333333
21
401.25
31
0
0
LINE
5
289
100
AcDbEntity
8
0
100
AcDbLine
10
547.5333333333333
20
401.25
30
0
11
547.5333333333333
21
406.70000000000005
31
0
0
LINE
5
290
100
AcDbEntity
8
0
100
AcDbLine
10
547.5333333333333
20
406.70000000000005
30
0
11
535.66111111111115
21
406.70000000000005
31
0
0
LINE
5
291
100
AcDbEntity
8
0
100
AcDbLine
10
535.66111111111115
20
406.70000000000005
30
0
11
535.66111111111115
21
401.25
31
0
0
LINE
5
292
100
AcDbEntity
8
0
100
AcDbLine
10
535.66111111111115
20
401.25
30
0
11
523.08888888888896
21
401.25
31
0
0
LINE
5
293
100
AcDbEntity
8
0
100
AcDbLine
10
523.08888888888896
20
401.25
30
0
11
523.08888888888896
21
406.70000000000005
31
0
0
LINE
5
294
100
AcDbEntity
8
0
100
AcDbLine
10
523.08888888888896
20
406.70000000000005
30
0
11
511.2166666666667
21
406.70000000000005
31
0
0
LINE
5
295
100
AcDbEntity
8
0
100
AcDbLine
10
511.2166666666667
20
406.70000000000005
30
0
11
511.2166666666667
21
401.25
31
0
0
LINE
5
296
100
AcDbEntity
8
0
100
AcDbLine
10
511.2166666666667
20
401.25
30
0
11
498.64444444444445
21
401.25
31
0
0
LINE
5
297
100
AcDbEntity
8
0
100
AcDbLine
10
498.64444444444445
20
401.25
30
0
11
498.64444444444445
21
406.70000000000005
31
0
0
LINE
5
298
100
AcDbEntity
8
0
100
AcDbLine
10
498.64444444444445
20
406.70000000000005
30
0
11
486.77222222222224
21
406.70000000000005
31
0
0
LINE
5
299
100
AcDbEntity
8
0
100
AcDbLine
10
486.77222222222224
20
406.70000000000005
30
0
11
486.77222222222224
21
401.25
31
0
0
LINE
5
300
100
AcDbEntity
8
0
100
AcDbLine
10
486.77222222222224
20
401.25
30
0
11
474.375
21
401.25
31
0
0
LINE
5
301
100
AcDbEntity
8
0
100
AcDbLine
10
474.375
20
401.25
30
0
11
474.20000000000005
21
401.25
31
0
0
LINE
5
302
100
AcDbEntity
8
0
100
AcDbLine
10
15.450000000000001
20
497.5
30
0
11
15.625
21
497.5
31
0
0
LINE
5
303
100
AcDbEntity
8
0
100
AcDbLine
10
15.625
20
497.5
30
0
11
26.988461538461543
21
497.5
31
0
0
LINE
5
304
100
AcDbEntity
8
0
100
AcDbLine
10
26.988461538461543
20
497.5
30
0
11
26.988461538461543
21
492.04999999999995
31
0
0
LINE
5
305
100
AcDbEntity
8
0
100
AcDbLine
10
26.988461538461543
20
492.04999999999995
30
0
11
38.876923076923077
21
492.04999999999995
31
0
0
LINE
5
306
100
AcDbEntity
8
0
100
AcDbLine
10
38.876923076923077
20
492.04999999999995
30
0
11
38.876923076923077
21
497.5
31
0
0
LINE
5
307
100
AcDbEntity
8
0
100
AcDbLine
10
38.876923076923077
20
497.5
30
0
11
50.065384615384616
21
497.5
31
0
0
LINE
5
308
100
AcDbEntity
8
0
100
AcDbLine
10
50.065384615384616
20
497.5
30
0
11
50.065384615384616
21
492.04999999999995
31
0
0
LINE
5
309
100
AcDbEntity
8
0
100
AcDbLine
10
50.065384615384616
20
492.04999999999995
30
0
11
61.953846153846158
21
492.04999999999995
31
0
0
LINE
5
310
100
AcDbEntity
8
0
100
AcDbLine
10
61.953846153846158
20
492.04999999999995
30
0
11
61.953846153846158
21
497.5
31
0
0
LINE
5
311
100
AcDbEntity
8
0
100
AcDbLine
10
61.953846153846158
20
497.5
30
0
11
73.142307692307696
21
497.5
31
0
0
LINE
5
312
100
AcDbEntity
8
0
100
AcDbLine
10
73.142307692307696
20
497.5
30
0
11
73.142307692307696
21
492.04999999999995
31
0
0
LINE
5
313
100
AcDbEntity
8
0
100
AcDbLine
10
73.142307692307696
20
492.04999999999995
30
0
11
85.030769230769209
21
492.04999999999995
31
0
0
LINE
5
314
100
AcDbEntity
8
0
100
AcDbLine
10
85.030769230769209
20
492.04999999999995
30
0
11
85.030769230769209
21
497.5
31
0
0
LINE
5
315
100
AcDbEntity
8
0
100
AcDbLine
10
85.030769230769209
20
497.5
30
0
11
96.219230769230791
21
497.5
31
0
0
LINE
5
316
100
AcDbEntity
8
0
100
AcDbLine
10
96.219230769230791
20
497.5
30
0
11
96.219230769230791
21
492.04999999999995
31
0
0
LINE
5
317
100
AcDbEntity
8
0
100
AcDbLine
10
96.219230769230791
20
492.04999999999995
30
0
11
108.1076923076923
21
492.04999999999995
31
0
0
LINE
5
318
100
AcDbEntity
8
0
100
AcDbLine
10
108.1076923076923
20
492.04999999999995
30
0
11
108.1076923076923
21
497.5
31
0
0
LINE
5
319
100
AcDbEntity
8
0
100
AcDbLine
10
108.1076923076923
20
497.5
30
0
11
119.29615384615386
21
497.5
31
0
0
LINE
5
320
100
AcDbEntity
8
0
100
AcDbLine
10
119.29615384615386
20
497.5
30
0
11
119.29615384615386
21
492.04999999999995
31
0
0
LINE
5
321
100
AcDbEntity
8
0
100
AcDbLine
10
119.29615384615386
20
492.04999999999995
30
0
11
131.1846153846154
21
492.04999999999995
31
0
0
LINE
5
322
100
AcDbEntity
8
0
100
AcDbLine
10
131.1846153846154
20
492.04999999999995
30
0
11
131.1846153846154
21
497.5
31
0
0
LINE
5
323
100
AcDbEntity
8
0
100
AcDbLine
10
131.1846153846154
20
497.5
30
0
11
142.37307692307692
21
497.5
31
0
0
LINE
5
324
100
AcDbEntity
8
0
100
AcDbLine
10
142.37307692307692
20
497.5
30
0
11
142.37307692307692
21
492.04999999999995
31
0
0
LINE
5
325
100
AcDbEntity
8
0
100
AcDbLine
10
142.37307692307692
20
492.04999999999995
30
0
11
154.26153846153846
21
492.04999999999995
31
0
0
LINE
5
326
100
AcDbEntity
8
0
100
AcDbLine
10
154.26153846153846
20
492.04999999999995
30
0
11
154.26153846153846
21
497.5
31
0
0
LINE
5
327
100
AcDbEntity
8
0
100
AcDbLine
10
154.26153846153846
20
497.5
30
0
11
165.625
21
497.5
31
0
0
LINE
5
328
100
AcDbEntity
8
0
100
AcDbLine
10
165.625
20
497.5
30
0
11
165.80000000000007
21
497.5
31
0
0
LINE
5
329
100
AcDbEntity
8
0
100
AcDbLine
10
165.80000000000007
20
497.5
30
0
11
165.80000000000001
21
497.67499999999995
31
0
0
LINE
5
330
100
AcDbEntity
8
0
100
AcDbLine
10
165.80000000000001
20
497.67499999999995
30
0
11
165.80000000000001
21
509.72222222222223
31
0
0
LINE
5
331
100
AcDbEntity
8
0
100
AcDbLine
10
165.80000000000001
20
509.72222222222223
30
0
11
171.25000000000003
21
509.72222222222223
31
0
0
LINE
5
332
100
AcDbEntity
8
0
100
AcDbLine
10
171.25000000000003
20
509.72222222222223
30
0
11
171.25000000000003
21
522.29444444444448
31
0
0
LINE
5
333
100
AcDbEntity
8
0
100
AcDbLine
10
171.25000000000003
20
522.29444444444448
30
0
11
165.80000000000001
21
522.29444444444448
31
0
0
LINE
5
334
100
AcDbEntity
8
0
100
AcDbLine
10
165.80000000000001
20
522.29444444444448
30
0
11
165.80000000000001
21
534.16666666666674
31
0
0
LINE
5
335
100
AcDbEntity
8
0
100
AcDbLine
10
165.80000000000001
20
534.16666666666674
30
0
11
171.25000000000003
21
534.16666666666674
31
0
0
LINE
5
336
100
AcDbEntity
8
0
100
AcDbLine
10
171.25000000000003
20
534.16666666666674
30
0
11
171.25000000000003
21
546.73888888888894
31
0
0
LINE
5
337
100
AcDbEntity
8
0
100
AcDbLine
10
171.25000000000003
20
546.73888888888894
30
0
11
165.80000000000001
21
546.73888888888894
31
0
0
LINE
5
338
100
AcDbEntity
8
0
100
AcDbLine
10
165.80000000000001
20
546.73888888888894
30
0
11
165.80000000000001
21
558.61111111111109
31
0
0
LINE
5
339
100
AcDbEntity
8
0
100
AcDbLine
10
165.80000000000001
20
558.61111111111109
30
0
11
171.25000000000003
21
558.61111111111109
31
0
0
LINE
5
340
100
AcDbEntity
8
0
100
AcDbLine
10
171.25000000000003
20
558.61111111111109
30
0
11
171.25000000000003
21
571.18333333333339
31
0
0
LINE
5
341
100
AcDbEntity
8
0
100
AcDbLine
10
171.25000000000003
20
571.18333333333339
30
0
11
165.80000000000001
21
571.18333333333339
31
0
0
LINE
5
342
100
AcDbEntity
8
0
100
AcDbLine
10
165.80000000000001
20
571.18333333333339
30
0
11
165.80000000000001
21
583.05555555555554
31
0
0
LINE
5
343
100
AcDbEntity
8
0
100
AcDbLine
10
165.80000000000001
20
583.05555555555554
30
0
11
171.25000000000003
21
583.05555555555554
31
0
0
LINE
5
344
100
AcDbEntity
8
0
100
AcDbLine
10
171.25000000000003
20
583.05555555555554
30
0
11
171.25000000000003
21
595.62777777777774
31
0
0
LINE
5
345
100
AcDbEntity
8
0
100
AcDbLine
10
171.25000000000003
20
595.62777777777774
30
0
11
165.80000000000001
21
595.62777777777774
31
0
0
LINE
5
346
100
AcDbEntity
8
0
100
AcDbLine
10
165.80000000000001
20
595.62777777777774
30
0
11
165.80000000000001
21
607.67500000000007
31
0
0
LINE
5
347
100
AcDbEntity
8
0
100
AcDbLine
10
165.80000000000001
20
607.67500000000007
30
0
11
165.80000000000007
21
607.85000000000002
31
0
0
LINE
5
348
100
AcDbEntity
8
0
100
AcDbLine
10
165.80000000000007
20
607.85000000000002
30
0
11
165.625
21
607.85000000000002
31
0
0
LINE
5
349
100
AcDbEntity
8
0
100
AcDbLine
10
165.625
20
607.85000000000002
30
0
11
154.26153846153846
21
607.85000000000002
31
0
0
LINE
5
350
100
AcDbEntity
8
0
100
AcDbLine
10
154.26153846153846
20
607.85000000000002
30
0
11
154.26153846153846
21
613.30000000000007
31
0
0
LINE
5
351
100
AcDbEntity
8
0
100
AcDbLine
10
154.26153846153846
20
613.30000000000007
30
0
11
142.37307692307692
21
613.30000000000007
31
0
0
LINE
5
352
100
AcDbEntity
8
0
100
AcDbLine
10
142.37307692307692
20
613.30000000000007
30
0
11
142.37307692307692
21
607.85000000000002
31
0
0
LINE
5
353
100
AcDbEntity
8
0
100
AcDbLine
10
142.37307692307692
20
607.85000000000002
30
0
11
131.1846153846154
21
607.85000000000002
31
0
0
LINE
5
354
100
AcDbEntity
8
0
100
AcDbLine
10
131.1846153846154
20
607.85000000000002
30
0
11
131.1846153846154
21
613.30000000000007
31
0
0
LINE
5
355
100
AcDbEntity
8
0
100
AcDbLine
10
131.1846153846154
20
613.30000000000007
30
0
11
119.29615384615386
21
613.30000000000007
31
0
0
LINE
5
356
100
AcDbEntity
8
0
100
AcDbLine
10
119.29615384615386
20
613.30000000000007
30
0
11
119.29615384615386
21
607.85000000000002
31
0
0
LINE
5
357
100
AcDbEntity
8
0
100
AcDbLine
10
119.29615384615386
20
607.85000000000002
30
0
11
108.1076923076923
21
607.85000000000002
31
0
0
LINE
5
358
100
AcDbEntity
8
0
100
AcDbLine
10
108.1076923076923
20
607.85000000000002
30
0
11
108.1076923076923
21
613.30000000000007
31
0
0
LINE
5
359
100
AcDbEntity
8
0
100
AcDbLine
10
108.1076923076923
20
613.30000000000007
30
0
11
96.219230769230791
21
613.30000000000007
31
0
0
LINE
5
360
100
AcDbEntity
8
0
100
AcDbLine
10
96.219230769230791
20
613.30000000000007
30
0
11
96.219230769230791
21
607.85000000000002
31
0
0
LINE
5
361
100
AcDbEntity
8
0
100
AcDbLine
10
96.219230769230791
20
607.85000000000002
30
0
11
85.030769230769209
21
607.85000000000002
31
0
0
LINE
5
362
100
AcDbEntity
8
0
100
AcDbLine
10
85.030769230769209
20
607.85000000000002
30
0
11
85.030769230769209
21
613.30000000000007
31
0
0
LINE
5
363
100
AcDbEntity
8
0
100
AcDbLine
10
85.030769230769209
20
613.30000000000007
30
0
11
73.142307692307696
21
613.30000000000007
31
0
0
LINE
5
364
100
AcDbEntity
8
0
100
AcDbLine
10
73.142307692307696
20
613.30000000000007
30
0
11
73.142307692307696
21
607.85000000000002
31
0
0
LINE
5
365
100
AcDbEntity
8
0
100
AcDbLine
10
73.142307692307696
20
607.85000000000002
30
0
11
61.953846153846158
21
607.85000000000002
31
0
0
LINE
5
366
100
AcDbEntity
8
0
100
AcDbLine
10
61.953846153846158
20
607.85000000000002
30
0
11
61.953846153846158
21
613.30000000000007
31
0
0
LINE
5
367
100
AcDbEntity
8
0
100
AcDbLine
10
61.953846153846158
20
613.30000000000007
30
0
11
50.065384615384616
21
613.30000000000007
31
0
0
LINE
5
368
100
AcDbEntity
8
0
100
AcDbLine
10
50.065384615384616
20
613.30000000000007
30
0
11
50.065384615384616
21
607.85000000000002
31
0
0
LINE
5
369
100
AcDbEntity
8
0
100
AcDbLine
10
50.065384615384616
20
607.85000000000002
30
0
11
38.876923076923077
21
607.85000000000002
31
0
0
LINE
5
370
100
AcDbEntity
8
0
100
AcDbLine
10
38.876923076923077
20
607.85000000000002
30
0
11
38.876923076923077
21
613.30000000000007
31
0
0
LINE
5
371
100
AcDbEntity
8
0
100
AcDbLine
10
38.876923076923077
20
613.30000000000007
30
0
11
26.988461538461543
21
613.30000000000007
31
0
0
LINE
5
372
100
AcDbEntity
8
0
100
AcDbLine
10
26.988461538461543
20
613.30000000000007
30
0
11
26.988461538461543
21
607.85000000000002
31
0
0
LINE
5
373
100
AcDbEntity
8
0
100
AcDbLine
10
26.988461538461543
20
607.85000000000002
30
0
11
15.625
21
607.85000000000002
31
0
0
LINE
5
374
100
AcDbEntity
8
0
100
AcDbLine
10
15.625
20
607.85000000000002
30
0
11
15.450000000000001
21
607.85000000000002
31
0
0
LINE
5
375
100
AcDbEntity
8
0
100
AcDbLine
10
15.450000000000001
20
607.85000000000002
30
0
11
15.450000000000001
21
607.67500000000007
31
0
0
LINE
5
376
100
AcDbEntity
8
0
100
AcDbLine
10
15.450000000000001
20
607.67500000000007
30
0
11
15.450000000000001
21
595.62777777777774
31
0
0
LINE
5
377
100
AcDbEntity
8
0
100
AcDbLine
10
15.450000000000001
20
595.62777777777774
30
0
11
10
21
595.62777777777774
31
0
0
LINE
5
378
100
AcDbEntity
8
0
100
AcDbLine
10
10
20
595.62777777777774
30
0
11
10
21
583.05555555555554
31
0
0
LINE
5
379
100
AcDbEntity
8
0
100
AcDbLine
10
10
20
583.05555555555554
30
0
11
15.450000000000001
21
583.05555555555554
31
0
0
LINE
5
380
100
AcDbEntity
8
0
100
AcDbLine
10
15.450000000000001
20
583.05555555555554
30
0
11
15.450000000000001
21
571.18333333333339
31
0
0
LINE
5
381
100
AcDbEntity
8
0
100
AcDbLine
10
15.450000000000001
20
571.18333333333339
30
0
11
10
21
571.18333333333339
31
0
0
LINE
5
382
100
AcDbEntity
8
0
100
AcDbLine
10
10
20
571.18333333333339
30
0
11
10
21
558.61111111111109
31
0
0
LINE
5
383
100
AcDbEntity
8
0
100
AcDbLine
10
10
20
558.61111111111109
30
0
11
15.450000000000001
21
558.61111111111109
31
0
0
LINE
5
384
100
AcDbEntity
8
0
100
AcDbLine
10
15.450000000000001
20
558.61111111111109
30
0
11
15.450000000000001
21
546.73888888888894
31
0
0
LINE
5
385
100
AcDbEntity
8
0
100
AcDbLine
10
15.450000000000001
20
546.73888888888894
30
0
11
10
21
546.73888888888894
31
0
0
LINE
5
386
100
AcDbEntity
8
0
100
AcDbLine
10
10
20
546.73888888888894
30
0
11
10
21
534.16666666666674
31
0
0
LINE
5
387
100
AcDbEntity
8
0
100
AcDbLine
10
10
20
534.16666666666674
30
0
11
15.450000000000001
21
534.16666666666674
31
0
0
LINE
5
388
100
AcDbEntity
8
0
100
AcDbLine
10
15.450000000000001
20
534.16666666666674
30
0
11
15.450000000000001
21
522.29444444444448
31
0
0
LINE
5
389
100
AcDbEntity
8
0
100
AcDbLine
10
15.450000000000001
20
522.29444444444448
30
0
11
10
21
522.29444444444448
31
0
0
LINE
5
390
100
AcDbEntity
8
0
100
AcDbLine
10
10
20
522.29444444444448
30
0
11
10
21
509.72222222222223
31
0
0
LINE
5
391
100
AcDbEntity
8
0
100
AcDbLine
10
10
20
509.72222222222223
30
0
11
15.450000000000001
21
509.72222222222223
31
0
0
LINE
5
392
100
AcDbEntity
8
0
100
AcDbLine
10
15.450000000000001
20
509.72222222222223
30
0
11
15.450000000000001
21
497.67499999999995
31
0
0
LINE
5
393
100
AcDbEntity
8
0
100
AcDbLine
10
15.450000000000001
20
497.67499999999995
30
0
11
15.450000000000001
21
497.5
31
0
0
LWPOLYLINE
5
394
100
AcDbEntity
8
0
100
AcDbPolyline
90
4
70
1
43
0.0
10
176.25
20
492.04999999999995
10
337.50000000000006
20
492.04999999999995
10
337.50000000000006
20
613.29999999999995
10
176.25
20
613.29999999999995
0
CIRCLE
5
395
100
AcDbEntity
8
0
100
AcDbCircle
10
256.875
20
578.67500000000007
30
0
40
1.8250000000000099
210
0
220
0
230
1
0
CIRCLE
5
396
100
AcDbEntity
8
0
100
AcDbCircle
10
256.875
20
526.67500000000007
30
0
40
1.8250000000000099
210
0
220
0
230
1
0
CIRCLE
5
397
100
AcDbEntity
8
0
100
AcDbCircle
10
256.875
20
600.67500000000007
30
0
40
1.8250000000000099
210
0
220
0
230
1
0
CIRCLE
5
398
100
AcDbEntity
8
0
100
AcDbCircle
10
256.875
20
504.67500000000007
30
0
40
1.8250000000000099
210
0
220
0
230
1
0
LWPOLYLINE
5
399
100
AcDbEntity
8
0
100
AcDbPolyline
90
4
70
1
43
0.0
10
342.5
20
492.04999999999995
10
367.85000000000002
20
492.04999999999995
10
367.85000000000002
20
517.39999999999998
10
342.5
20
517.39999999999998
0
LWPOLYLINE
5
400
100
AcDbEntity
8
0
100
AcDbPolyline
90
4
70
1
43
0.0
10
372.85000000000002
20
492.04999999999995
10
398.20000000000005
20
492.04999999999995
10
398.20000000000005
20
517.39999999999998
10
372.85000000000002
20
517.39999999999998
0
LWPOLYLINE
5
401
100
AcDbEntity
8
0
100
AcDbPolyline
90
4
70
1
43
0.0
10
403.20000000000005
20
492.04999999999995
10
428.55000000000007
20
492.04999999999995
10
428.55000000000007
20
517.39999999999998
10
403.20000000000005
20
517.39999999999998
0
LWPOLYLINE
5
402
100
AcDbEntity
8
0
100
AcDbPolyline
90
4
70
1
43
0.0
10
433.55000000000007
20
492.04999999999995
10
458.90000000000009
20
492.04999999999995
10
458.90000000000009
20
517.39999999999998
10
433.55000000000007
20
517.39999999999998
0
ENDSEC
0
SECTION
2
OBJECTS
0
DICTIONARY
5
C
100
AcDbDictionary
3
ACAD_GROUP
350
D
3
ACAD_MLINESTYLE
350
17
0
DICTIONARY
5
D
100
AcDbDictionary
0
DICTIONARY
5
1A
330
C
100
AcDbDictionary
0
DICTIONARY
5
17
100
AcDbDictionary
0
ENDSEC
0
EOF
