0
SECTION
2
HEADER
9
$INSUNITS
70
4
9
$ACADVER
1
AC1014
9
$HANDSEED
5
FFFF
0
ENDSEC
0
SECTION
2
TABLES
0
TABLE
2
VPORT
5
8
100
AcDbSymbolTable
0
ENDTAB
0
TABLE
2
LTYPE
5
5
100
AcDbSymbolTable
0
LTYPE
5
14
100
AcDbSymbolTableRecord
100
AcDbLinetypeTableRecord
2
BYBLOCK
70
0
0
LTYPE
5
15
100
AcDbSymbolTableRecord
100
AcDbLinetypeTableRecord
2
BYLAYER
70
0
0
LTYPE
5
16
100
AcDbSymbolTableRecord
100
AcDbLinetypeTableRecord
2
DASHED
70
0
3
Dashed __ __ __ __ __ __ __ __ __ __ __ __ __ _
72
65
73
2
40
0.75
49
0.5
74
0
49
-0.25
74
0
0
ENDTAB
0
TABLE
2
LAYER
5
2
100
AcDbSymbolTable
70
2
0
LAYER
5
50
100
AcDbSymbolTableRecord
100
AcDbLayerTableRecord
2
0
70
0
62
7
6
CONTINUOUS
0
ENDTAB
0
TABLE
2
STYLE
5
3
100
AcDbSymbolTable
70
1
0
STYLE
5
11
100
AcDbSymbolTableRecord
100
AcDbTextStyleTableRecord
2
STANDARD
70
0
0
ENDTAB
0
TABLE
2
VIEW
5
6
100
AcDbSymbolTable
70
0
0
ENDTAB
0
TABLE
2
UCS
5
7
100
AcDbSymbolTable
70
0
0
ENDTAB
0
TABLE
2
APPID
5
9
100
AcDbSymbolTable
70
2
0
APPID
5
12
100
AcDbSymbolTableRecord
100
AcDbRegAppTableRecord
2
ACAD
70
0
0
ENDTAB
0
TABLE
2
DIMSTYLE
5
A
100
AcDbSymbolTable
70
1
0
ENDTAB
0
TABLE
2
BLOCK_RECORD
5
1
100
AcDbSymbolTable
70
1
0
BLOCK_RECORD
5
1F
100
AcDbSymbolTableRecord
100
AcDbBlockTableRecord
2
*MODEL_SPACE
0
BLOCK_RECORD
5
1B
100
AcDbSymbolTableRecord
100
AcDbBlockTableRecord
2
*PAPER_SPACE
0
ENDTAB
0
ENDSEC
0
SECTION
2
BLOCKS
0
BLOCK
5
20
100
AcDbEntity
100
AcDbBlockBegin
2
*MODEL_SPACE
0
ENDBLK
5
21
100
AcDbEntity
100
AcDbBlockEnd
0
BLOCK
5
1C
100
AcDbEntity
100
AcDbBlockBegin
2
*PAPER_SPACE
0
ENDBLK
5
1D
100
AcDbEntity
100
AcDbBlockEnd
0
ENDSEC
0
SECTION
2
ENTITIES
0
LINE
5
100
100
AcDbEntity
8
0
100
AcDbLine
10
181.52500000000001
20
-0.17499999999999999
30
0
11
181.52500000000001
21
11.857142857142854
31
0
0
LINE
5
101
100
AcDbEntity
8
0
100
AcDbLine
10
181.52500000000001
20
11.857142857142854
30
0
11
176.07499999999999
21
11.857142857142854
31
0
0
LINE
5
102
100
AcDbEntity
8
0
100
AcDbLine
10
176.07499999999999
20
11.857142857142854
30
0
11
176.07499999999999
21
24.414285714285711
31
0
0
LINE
5
103
100
AcDbEntity
8
0
100
AcDbLine
10
176.07499999999999
20
24.414285714285711
30
0
11
181.52500000000001
21
24.414285714285711
31
0
0
LINE
5
104
100
AcDbEntity
8
0
100
AcDbLine
10
181.52500000000001
20
24.414285714285711
30
0
11
181.52500000000001
21
36.271428571428579
31
0
0
LINE
5
105
100
AcDbEntity
8
0
100
AcDbLine
10
181.52500000000001
20
36.271428571428579
30
0
11
176.07499999999999
21
36.271428571428579
31
0
0
LINE
5
106
100
AcDbEntity
8
0
100
AcDbLine
10
176.07499999999999
20
36.271428571428579
30
0
11
176.07499999999999
21
48.828571428571422
31
0
0
LINE
5
107
100
AcDbEntity
8
0
100
AcDbLine
10
176.07499999999999
20
48.828571428571422
30
0
11
181.52500000000001
21
48.828571428571422
31
0
0
LINE
5
108
100
AcDbEntity
8
0
100
AcDbLine
10
181.52500000000001
20
48.828571428571422
30
0
11
181.52500000000001
21
60.685714285714297
31
0
0
LINE
5
109
100
AcDbEntity
8
0
100
AcDbLine
10
181.52500000000001
20
60.685714285714297
30
0
11
176.07499999999999
21
60.685714285714297
31
0
0
LINE
5
110
100
AcDbEntity
8
0
100
AcDbLine
10
176.07499999999999
20
60.685714285714297
30
0
11
176.07499999999999
21
73.242857142857147
31
0
0
LINE
5
111
100
AcDbEntity
8
0
100
AcDbLine
10
176.07499999999999
20
73.242857142857147
30
0
11
181.52500000000001
21
73.242857142857147
31
0
0
LINE
5
112
100
AcDbEntity
8
0
100
AcDbLine
10
181.52500000000001
20
73.242857142857147
30
0
11
181.52500000000001
21
85.625
31
0
0
LINE
5
113
100
AcDbEntity
8
0
100
AcDbLine
10
181.52500000000001
20
85.625
30
0
11
291.875
21
85.625
31
0
0
LINE
5
114
100
AcDbEntity
8
0
100
AcDbLine
10
291.875
20
85.625
30
0
11
291.875
21
73.242857142857147
31
0
0
LINE
5
115
100
AcDbEntity
8
0
100
AcDbLine
10
291.875
20
73.242857142857147
30
0
11
297.32499999999999
21
73.242857142857147
31
0
0
LINE
5
116
100
AcDbEntity
8
0
100
AcDbLine
10
297.32499999999999
20
73.242857142857147
30
0
11
297.32499999999999
21
60.685714285714297
31
0
0
LINE
5
117
100
AcDbEntity
8
0
100
AcDbLine
10
297.32499999999999
20
60.685714285714297
30
0
11
291.875
21
60.685714285714297
31
0
0
LINE
5
118
100
AcDbEntity
8
0
100
AcDbLine
10
291.875
20
60.685714285714297
30
0
11
291.875
21
48.828571428571422
31
0
0
LINE
5
119
100
AcDbEntity
8
0
100
AcDbLine
10
291.875
20
48.828571428571422
30
0
11
297.32499999999999
21
48.828571428571422
31
0
0
LINE
5
120
100
AcDbEntity
8
0
100
AcDbLine
10
297.32499999999999
20
48.828571428571422
30
0
11
297.32499999999999
21
36.271428571428579
31
0
0
LINE
5
121
100
AcDbEntity
8
0
100
AcDbLine
10
297.32499999999999
20
36.271428571428579
30
0
11
291.875
21
36.271428571428579
31
0
0
LINE
5
122
100
AcDbEntity
8
0
100
AcDbLine
10
291.875
20
36.271428571428579
30
0
11
291.875
21
24.414285714285711
31
0
0
LINE
5
123
100
AcDbEntity
8
0
100
AcDbLine
10
291.875
20
24.414285714285711
30
0
11
297.32499999999999
21
24.414285714285711
31
0
0
LINE
5
124
100
AcDbEntity
8
0
100
AcDbLine
10
297.32499999999999
20
24.414285714285711
30
0
11
297.32499999999999
21
11.857142857142854
31
0
0
LINE
5
125
100
AcDbEntity
8
0
100
AcDbLine
10
297.32499999999999
20
11.857142857142854
30
0
11
291.875
21
11.857142857142854
31
0
0
LINE
5
126
100
AcDbEntity
8
0
100
AcDbLine
10
291.875
20
11.857142857142854
30
0
11
291.875
21
-0.17499999999999999
31
0
0
LINE
5
127
100
AcDbEntity
8
0
100
AcDbLine
10
291.875
20
-0.17499999999999999
30
0
11
291.69999999999999
21
-0.17499999999999999
31
0
0
LINE
5
128
100
AcDbEntity
8
0
100
AcDbLine
10
291.69999999999999
20
-0.17499999999999999
30
0
11
279.30277777777781
21
-0.17499999999999999
31
0
0
LINE
5
129
100
AcDbEntity
8
0
100
AcDbLine
10
279.30277777777781
20
-0.17499999999999999
30
0
11
279.30277777777781
21
5.2750000000000004
31
0
0
LINE
5
130
100
AcDbEntity
8
0
100
AcDbLine
10
279.30277777777781
20
5.2750000000000004
30
0
11
267.43055555555554
21
5.2750000000000004
31
0
0
LINE
5
131
100
AcDbEntity
8
0
100
AcDbLine
10
267.43055555555554
20
5.2750000000000004
30
0
11
267.43055555555554
21
-0.17499999999999999
31
0
0
LINE
5
132
100
AcDbEntity
8
0
100
AcDbLine
10
267.43055555555554
20
-0.17499999999999999
30
0
11
254.85833333333335
21
-0.17499999999999999
31
0
0
LINE
5
133
100
AcDbEntity
8
0
100
AcDbLine
10
254.85833333333335
20
-0.17499999999999999
30
0
11
254.85833333333335
21
5.2750000000000004
31
0
0
LINE
5
134
100
AcDbEntity
8
0
100
AcDbLine
10
254.85833333333335
20
5.2750000000000004
30
0
11
242.98611111111109
21
5.2750000000000004
31
0
0
LINE
5
135
100
AcDbEntity
8
0
100
AcDbLine
10
242.98611111111109
20
5.2750000000000004
30
0
11
242.98611111111109
21
-0.17499999999999999
31
0
0
LINE
5
136
100
AcDbEntity
8
0
100
AcDbLine
10
242.98611111111109
20
-0.17499999999999999
30
0
11
230.41388888888889
21
-0.17499999999999999
31
0
0
LINE
5
137
100
AcDbEntity
8
0
100
AcDbLine
10
230.41388888888889
20
-0.17499999999999999
30
0
11
230.41388888888889
21
5.2750000000000004
31
0
0
LINE
5
138
100
AcDbEntity
8
0
100
AcDbLine
10
230.41388888888889
20
5.2750000000000004
30
0
11
218.54166666666663
21
5.2750000000000004
31
0
0
LINE
5
139
100
AcDbEntity
8
0
100
AcDbLine
10
218.54166666666663
20
5.2750000000000004
30
0
11
218.54166666666663
21
-0.17499999999999999
31
0
0
LINE
5
140
100
AcDbEntity
8
0
100
AcDbLine
10
218.54166666666663
20
-0.17499999999999999
30
0
11
205.96944444444443
21
-0.17499999999999999
31
0
0
LINE
5
141
100
AcDbEntity
8
0
100
AcDbLine
10
205.96944444444443
20
-0.17499999999999999
30
0
11
205.96944444444443
21
5.2750000000000004
31
0
0
LINE
5
142
100
AcDbEntity
8
0
100
AcDbLine
10
205.96944444444443
20
5.2750000000000004
30
0
11
194.09722222222223
21
5.2750000000000004
31
0
0
LINE
5
143
100
AcDbEntity
8
0
100
AcDbLine
10
194.09722222222223
20
5.2750000000000004
30
0
11
194.09722222222223
21
-0.17499999999999999
31
0
0
LINE
5
144
100
AcDbEntity
8
0
100
AcDbLine
10
194.09722222222223
20
-0.17499999999999999
30
0
11
181.69999999999999
21
-0.17499999999999999
31
0
0
LINE
5
145
100
AcDbEntity
8
0
100
AcDbLine
10
181.69999999999999
20
-0.17499999999999999
30
0
11
181.52500000000001
21
-0.17499999999999999
31
0
0
ENDSEC
0
SECTION
2
OBJECTS
0
DICTIONARY
5
C
100
AcDbDictionary
3
ACAD_GROUP
350
D
3
ACAD_MLINESTYLE
350
17
0
DICTIONARY
5
D
100
AcDbDictionary
0
DICTIONARY
5
1A
330
C
100
AcDbDictionary
0
DICTIONARY
5
17
100
AcDbDictionary
0
ENDSEC
0
EOF
